<?xml version="1.0" standalone="no"?>
<!DOCTYPE svg PUBLIC "-//W3C//DTD SVG 20010904//EN"
 "http://www.w3.org/TR/2001/REC-SVG-20010904/DTD/svg10.dtd">
<svg version="1.0" xmlns="http://www.w3.org/2000/svg"
 width="1065.000000pt" height="1280.000000pt" viewBox="0 0 1065.000000 1280.000000"
 preserveAspectRatio="xMidYMid meet">
<metadata>
Created by potrace 1.15, written by Peter Selinger 2001-2017
</metadata>
<g transform="translate(0.000000,1280.000000) scale(0.100000,-0.100000)"
fill="#000000" stroke="none">
<path d="M9110 12793 c-127 -20 -187 -39 -445 -138 -218 -84 -313 -111 -440
-125 -129 -15 -201 -2 -343 60 -255 113 -269 117 -502 146 -176 21 -469 14
-612 -15 -198 -40 -405 -123 -588 -236 l-95 -58 -90 0 c-83 0 -99 3 -213 46
-68 26 -138 47 -156 47 -44 0 -147 -68 -301 -200 -143 -122 -220 -178 -296
-216 -52 -25 -58 -31 -63 -66 -5 -29 0 -58 20 -111 21 -60 27 -97 33 -223 7
-160 18 -196 62 -212 18 -7 18 -9 -11 -30 -43 -32 -75 -103 -115 -253 -20 -72
-48 -161 -64 -197 -16 -36 -27 -71 -24 -79 3 -7 21 -22 40 -34 66 -41 65 -105
-4 -227 -74 -133 -103 -203 -163 -392 -95 -303 -108 -339 -156 -437 -56 -114
-146 -215 -232 -261 -57 -30 -60 -34 -64 -76 -3 -26 -18 -61 -37 -89 -17 -25
-35 -57 -40 -70 -7 -17 -20 -27 -43 -32 -63 -13 -213 -93 -282 -152 -154 -129
-264 -318 -437 -748 -100 -251 -167 -392 -237 -500 -55 -85 -177 -213 -251
-262 -48 -32 -61 -36 -112 -34 -68 2 -108 -13 -181 -68 -60 -45 -115 -71 -151
-71 -20 0 -26 -10 -45 -69 -28 -87 -83 -171 -158 -242 -81 -75 -135 -111 -303
-199 -80 -41 -148 -82 -152 -90 -5 -8 -27 -53 -49 -100 -78 -160 -213 -346
-471 -652 -104 -123 -154 -175 -165 -171 -37 14 -87 -68 -86 -144 0 -53 0 -53
-57 -98 -116 -88 -257 -258 -370 -445 -81 -135 -165 -309 -336 -695 -75 -170
-161 -357 -190 -415 -64 -127 -75 -174 -45 -190 11 -6 20 -15 20 -21 0 -6 9
-24 21 -40 l21 -29 -26 -30 c-13 -16 -27 -38 -30 -47 -3 -10 -17 -61 -31 -113
-15 -52 -32 -101 -38 -108 -8 -10 -2 -20 25 -42 38 -31 49 -62 68 -180 7 -41
16 -82 21 -92 6 -11 -4 -40 -36 -100 -24 -45 -56 -123 -71 -173 -25 -82 -27
-105 -28 -255 -1 -181 -1 -179 84 -615 32 -165 64 -340 72 -390 17 -120 18
-535 0 -629 l-13 -68 41 -35 c23 -20 99 -106 169 -192 149 -182 234 -264 311
-300 46 -22 69 -26 142 -26 47 0 90 4 94 8 4 4 -3 15 -17 24 -30 20 -214 206
-413 416 l-149 158 7 85 c14 176 70 279 165 308 25 8 41 15 35 15 -5 1 -20 10
-32 21 -36 34 -28 73 35 183 46 81 57 109 57 146 l1 46 -65 -1 c-101 -1 -179
-48 -134 -81 15 -11 20 -9 31 7 17 24 55 26 73 5 25 -31 -102 -185 -153 -185
-13 0 -31 6 -41 13 -17 12 -17 16 -1 71 26 90 17 153 -38 274 -26 56 -54 126
-61 155 -13 52 -13 52 12 66 14 7 87 19 163 26 147 14 188 28 207 69 11 25 10
26 -22 26 -48 0 -60 20 -57 92 1 32 46 88 70 88 14 0 20 -11 24 -51 8 -62 20
-79 60 -79 29 0 29 1 23 43 -3 23 -36 103 -74 177 -64 128 -67 139 -67 205 0
59 5 78 28 118 23 38 33 47 56 47 33 0 50 -17 86 -89 l27 -54 20 21 21 21 -46
73 c-48 78 -87 160 -87 184 0 20 49 18 94 -6 l38 -19 -4 57 c-3 44 -13 71 -42
119 -21 33 -40 79 -43 102 l-6 41 36 0 c66 0 119 73 141 190 7 40 -40 222 -74
289 -21 42 -86 105 -100 96 -23 -14 -34 -115 -30 -275 10 -353 4 -420 -46
-479 -14 -17 -43 -36 -64 -42 -45 -14 -39 5 -76 -224 -29 -172 -38 -427 -21
-569 l9 -69 -44 6 c-23 4 -78 9 -120 13 -43 3 -85 12 -94 18 -15 11 -17 40
-17 242 0 234 5 304 49 689 45 394 54 526 53 749 l0 219 51 61 c40 48 284 398
298 427 2 4 -13 10 -33 13 -42 8 -57 34 -29 49 10 5 51 42 89 81 84 85 121
153 200 366 110 296 158 362 455 615 170 145 301 276 346 344 21 33 30 61 35
111 8 87 26 110 226 280 92 79 171 155 200 195 42 57 62 73 161 131 189 108
317 206 617 468 226 198 389 328 512 409 113 75 303 172 405 208 55 19 69 29
77 52 6 15 35 63 66 106 30 44 55 82 55 86 0 15 -102 -4 -154 -28 -29 -14 -84
-47 -122 -74 -86 -63 -160 -101 -213 -109 -23 -4 -41 -5 -41 -2 0 7 176 498
200 558 39 98 108 223 163 295 96 125 227 213 377 251 68 18 68 18 106 83 165
282 305 435 458 501 l48 20 -6 54 c-9 65 9 316 29 422 40 209 94 367 185 541
114 219 232 376 446 592 137 138 141 143 106 137 -21 -4 -66 -9 -102 -12 -80
-8 -95 5 -112 94 l-11 61 -56 -51 c-66 -59 -97 -76 -112 -61 -13 13 -24 102
-38 298 -6 83 -13 176 -16 207 l-6 58 43 17 c67 26 222 110 345 185 106 65
113 68 135 54 42 -28 151 -37 342 -30 l181 7 59 54 c136 122 313 186 591 213
83 9 221 10 450 5 l330 -7 46 -34 c146 -107 336 -149 564 -125 61 7 223 37
360 67 368 81 389 85 525 91 124 6 125 6 108 -14 -12 -13 -18 -36 -18 -71 0
-29 -2 -52 -5 -52 -17 0 -54 26 -70 51 -36 53 -101 56 -138 7 -19 -26 -19 -28
-2 -97 16 -67 15 -91 -5 -91 -5 0 -28 28 -51 63 -23 34 -51 72 -63 85 -19 21
-21 22 -27 5 -4 -10 -8 -33 -8 -50 -1 -37 -18 -83 -85 -227 -25 -55 -44 -102
-42 -103 2 -2 61 21 132 52 71 31 154 65 186 76 59 19 143 25 166 11 9 -7 12
-42 10 -141 l-3 -132 -60 -24 c-47 -19 -81 -46 -165 -128 -58 -57 -119 -114
-136 -125 -48 -33 -148 -55 -213 -48 l-56 5 -48 -99 c-58 -118 -110 -193 -153
-216 -40 -22 -69 -13 -59 19 4 12 17 68 30 123 13 56 30 117 38 136 15 37 60
78 84 78 18 0 13 20 -9 33 -56 36 -148 -63 -326 -350 l-51 -83 39 0 c46 0 49
-8 20 -65 -11 -22 -20 -58 -20 -81 0 -33 -4 -43 -22 -51 -13 -6 -65 -41 -116
-77 -99 -72 -203 -126 -239 -126 -22 0 -23 4 -23 78 0 47 -5 83 -12 90 -20 20
-76 15 -88 -7 -14 -27 -12 -109 5 -221 15 -98 19 -217 9 -244 -4 -10 -18 -16
-38 -16 -85 -1 -141 -55 -200 -194 -16 -37 -30 -65 -31 -64 -2 2 3 32 11 68 7
36 14 87 14 114 0 49 -1 50 -86 132 -100 95 -100 94 -40 220 46 98 51 125 28
154 l-18 22 -41 -20 c-100 -52 -143 -118 -143 -223 0 -92 28 -188 116 -400
165 -398 194 -498 194 -670 0 -113 -14 -178 -56 -261 -29 -57 -29 -58 -6 -58
34 0 140 -60 176 -100 42 -46 78 -114 100 -189 21 -72 21 -71 -19 -71 -28 0
-40 8 -72 45 -41 50 -58 56 -66 24 -7 -25 89 -234 133 -289 37 -46 37 -50 5
-50 -36 0 -75 -42 -76 -82 -3 -65 3 -105 39 -243 41 -161 46 -242 18 -274 -11
-12 -27 -21 -36 -21 -33 0 -102 76 -204 225 -107 157 -152 201 -217 211 -41 7
-86 -11 -132 -52 -38 -33 -24 -49 51 -64 186 -34 198 -41 163 -86 -50 -63 -14
-142 93 -206 l51 -30 -54 6 c-82 8 -150 47 -253 145 -89 83 -164 141 -200 154
-26 9 -23 20 27 78 25 29 45 56 45 59 0 4 -37 10 -82 12 -98 7 -181 34 -257
84 -71 48 -123 101 -252 259 -113 138 -165 192 -175 183 -3 -4 -8 -24 -11 -45
-6 -45 10 -85 62 -157 59 -81 40 -139 -29 -85 -15 11 -45 47 -67 80 -25 37
-47 59 -59 59 -38 0 -34 -23 11 -63 388 -343 692 -571 1022 -764 122 -71 385
-205 487 -248 36 -15 66 -28 68 -29 1 -2 -6 -18 -15 -37 -13 -24 -17 -56 -17
-114 1 -87 11 -130 85 -370 66 -214 83 -306 76 -425 -5 -94 -24 -171 -44 -177
-6 -2 -34 16 -63 41 -29 25 -57 43 -62 40 -16 -10 -8 -164 17 -294 14 -73 25
-135 25 -137 0 -3 -17 10 -39 30 -45 40 -121 61 -188 51 -37 -5 -43 -10 -43
-30 0 -42 31 -117 91 -219 93 -160 99 -225 27 -276 -58 -42 -97 -7 -142 126
-31 94 -52 127 -66 106 -14 -24 -23 -179 -16 -293 10 -163 54 -278 107 -278
16 0 15 -3 -2 -37 -10 -21 -19 -42 -19 -49 0 -6 -9 -19 -20 -29 -17 -15 -30
-17 -92 -11 -130 12 -210 41 -250 90 -23 28 -22 31 7 44 18 8 25 19 25 39 0
26 -13 53 -104 215 -20 37 -38 80 -38 95 0 15 12 88 26 162 56 283 71 434 71
726 0 249 -2 277 -23 362 -13 51 -27 95 -31 98 -14 8 -41 -96 -41 -159 0 -33
7 -104 16 -156 28 -176 19 -266 -36 -353 -26 -41 -34 -47 -64 -47 -39 0 -46 8
-70 73 -12 31 -27 52 -42 59 -36 17 -38 5 -11 -49 90 -176 157 -377 157 -469
0 -92 -48 -173 -128 -217 l-51 -28 -19 38 c-30 58 -50 134 -57 215 -8 89 -30
171 -50 188 -12 10 -20 7 -46 -14 -36 -30 -49 -32 -96 -9 -44 20 -93 85 -183
243 -39 69 -84 141 -98 160 -31 40 -71 80 -82 80 -16 0 -40 -83 -40 -136 0
-108 58 -178 290 -354 218 -165 297 -255 326 -369 13 -52 33 -67 105 -76 26
-3 55 -12 65 -19 17 -13 17 -18 6 -48 -19 -53 -15 -87 23 -208 23 -75 35 -131
35 -171 l0 -59 92 0 c105 0 86 12 197 -131 74 -95 141 -199 266 -414 194 -336
314 -492 609 -789 198 -200 335 -327 641 -590 l220 -189 21 -86 c60 -241 142
-362 472 -703 111 -115 206 -218 213 -229 17 -33 80 -19 219 51 150 75 163 76
180 13 7 -27 14 -56 17 -65 5 -22 23 -22 158 -7 84 10 106 10 129 -2 38 -18
50 -40 42 -72 l-6 -26 -72 34 c-40 19 -83 35 -95 35 -29 0 -51 -34 -59 -91 -8
-56 3 -66 76 -74 65 -7 73 -13 68 -51 -3 -25 -8 -30 -41 -35 -48 -8 -53 -13
-39 -44 16 -34 15 -60 -2 -74 -11 -9 -24 -5 -63 19 -88 56 -123 62 -418 69
l-270 6 -66 31 c-69 33 -106 71 -134 136 -15 37 -15 37 -45 22 -40 -20 -72
-12 -177 42 -46 24 -95 44 -109 44 -29 0 -80 -24 -110 -52 -26 -24 -33 -17
-70 75 -29 74 -67 127 -90 127 -29 0 -45 -65 -38 -153 5 -64 3 -90 -9 -120
-15 -34 -19 -37 -56 -37 -35 0 -43 4 -56 30 -9 18 -20 80 -26 147 -6 64 -16
131 -24 149 -16 39 -12 43 87 98 62 35 118 85 118 107 0 13 -40 11 -98 -6 -33
-10 -75 -35 -119 -72 -69 -56 -117 -83 -151 -83 -10 0 -42 7 -70 15 -62 19
-64 28 -32 143 26 95 26 133 -2 159 -52 47 -61 42 -108 -62 -53 -117 -77 -138
-157 -137 -30 0 -60 5 -66 11 -5 5 -12 72 -14 148 -4 128 -2 147 26 258 16 66
28 122 26 124 -3 2 -16 -4 -30 -13 -28 -18 -76 -88 -118 -172 -46 -92 -134
-144 -215 -129 -32 6 -34 8 -28 40 4 19 30 83 58 142 61 127 73 206 43 274
-28 62 -61 53 -215 -56 -34 -23 -56 -30 -107 -33 l-64 -4 7 38 c10 56 37 89
117 142 51 33 78 58 91 85 10 21 15 41 12 44 -9 9 -93 -33 -138 -69 -21 -16
-70 -73 -109 -126 -40 -53 -90 -120 -111 -148 -21 -28 -38 -53 -38 -56 0 -16
107 -28 249 -28 87 0 166 -3 175 -6 19 -7 21 -43 4 -79 -6 -15 -49 -53 -94
-85 -109 -79 -144 -148 -86 -172 40 -16 168 -13 239 6 117 31 161 36 213 25
28 -6 52 -15 56 -20 3 -5 -10 -25 -28 -43 -26 -26 -49 -37 -108 -50 -152 -34
-198 -58 -214 -112 -6 -21 -5 -21 241 -27 274 -6 357 -18 458 -66 82 -38 137
-89 166 -154 20 -45 24 -74 29 -219 8 -249 18 -256 254 -189 78 22 174 43 214
47 l72 7 0 32 c0 55 -17 59 -109 25 -46 -16 -89 -30 -97 -30 -8 0 -27 12 -41
26 l-26 26 24 14 c13 7 55 18 93 25 152 25 357 -41 511 -166 l51 -42 154 -7
c85 -4 225 -14 310 -22 85 -8 269 -18 407 -21 l253 -6 22 29 c37 48 98 103
200 177 l97 70 -41 60 c-58 85 -189 212 -285 274 -99 65 -195 107 -304 133
-144 34 -199 35 -351 5 l-138 -27 -33 21 c-52 32 -135 125 -227 255 -47 66
-110 144 -140 175 -42 42 -62 72 -79 121 -53 148 -210 429 -277 495 -28 28
-39 33 -63 29 -39 -8 -166 52 -227 107 -26 24 -92 105 -147 179 -76 102 -164
200 -362 400 -264 269 -334 351 -381 455 -24 51 -26 66 -21 131 l5 74 -43 0
c-27 0 -51 7 -66 19 l-22 18 20 29 c85 121 112 252 133 659 18 345 39 451 180
880 100 306 123 384 144 505 26 144 24 179 -12 229 -92 127 -106 333 -36 551
13 41 20 77 16 81 -4 3 -26 20 -49 38 -26 20 -53 54 -72 93 -27 53 -31 72 -31
143 0 84 17 161 51 228 19 37 19 37 -1 37 -29 0 -76 26 -94 52 -29 41 -20 66
49 132 36 34 65 68 65 74 0 7 -16 12 -41 12 -74 0 -80 9 -77 108 2 48 -1 94
-5 103 -7 14 -4 16 18 11 l27 -5 -7 95 c-6 80 -4 100 10 128 42 81 41 85 -33
158 -157 157 -196 313 -196 807 l-1 279 245 222 c253 230 402 380 467 471 21
29 45 53 53 53 8 0 29 -9 45 -20 53 -35 77 -27 120 38 53 79 162 185 348 336
87 71 190 164 228 205 65 72 73 78 137 95 119 31 229 91 305 166 37 38 67 72
67 78 0 5 -17 12 -39 16 -51 8 -96 51 -112 107 -9 34 -9 74 0 179 22 254 14
328 -41 394 l-29 36 -82 -1 c-45 -1 -93 -4 -107 -6z"/>
<path d="M6650 12518 c-30 -15 -54 -39 -74 -71 -16 -26 -27 -49 -25 -51 6 -7
334 51 398 70 48 14 131 50 131 57 0 1 -26 2 -57 2 -32 0 -119 4 -193 8 -130
8 -137 8 -180 -15z"/>
<path d="M7524 12455 c-60 -30 -104 -81 -147 -173 -27 -57 -32 -81 -35 -162
-3 -72 0 -100 11 -115 14 -18 17 -17 70 38 30 31 69 85 87 120 32 66 73 239
68 289 l-3 29 -51 -26z"/>
<path d="M7793 12394 c-27 -6 -26 -2 -9 -51 10 -29 15 -112 17 -313 l4 -273
-45 -13 c-58 -18 -105 -17 -164 0 -34 10 -46 11 -42 3 27 -66 29 -89 13 -165
-21 -97 -21 -131 -1 -160 l16 -23 23 48 c29 62 65 98 200 198 112 83 158 131
177 185 13 39 -1 57 -51 66 -42 8 -71 21 -71 33 0 5 20 19 45 31 57 28 100 78
174 205 33 56 76 119 95 140 20 21 36 38 36 39 0 1 -24 2 -53 3 -30 1 -91 11
-136 23 -85 22 -189 32 -228 24z"/>
<path d="M8575 12377 c-47 -27 -57 -64 -15 -59 37 5 105 45 105 62 0 24 -46
22 -90 -3z"/>
<path d="M6672 12239 c-95 -109 -113 -177 -59 -227 l23 -22 16 33 c9 18 39 63
67 101 37 48 51 76 51 99 0 31 -23 77 -38 77 -4 -1 -31 -28 -60 -61z"/>
<path d="M5934 12235 c-138 -25 -284 -82 -378 -148 -80 -55 -228 -218 -213
-233 12 -12 79 19 136 62 72 54 118 74 171 74 37 0 40 -2 40 -28 0 -16 -16
-75 -35 -131 -40 -116 -43 -153 -15 -181 40 -40 53 -28 79 72 28 108 77 229
121 298 45 70 147 162 221 199 l62 31 -59 -1 c-32 0 -91 -7 -130 -14z"/>
<path d="M8271 12190 c-44 -83 -51 -153 -19 -199 37 -55 48 -51 48 15 0 32 7
93 16 135 27 122 6 145 -45 49z"/>
<path d="M6285 12101 c8 -63 -9 -184 -39 -274 -13 -40 -69 -164 -124 -277
-177 -364 -189 -436 -127 -760 45 -238 50 -370 19 -495 -5 -22 -3 -25 19 -25
39 0 79 -18 115 -53 40 -38 54 -63 98 -176 38 -96 35 -113 -24 -138 -92 -37
-105 -89 -46 -180 47 -73 143 -169 188 -188 43 -18 83 -19 115 -1 24 13 23 13
-15 21 -51 9 -106 67 -130 137 -27 78 -24 199 5 261 22 44 26 47 61 47 29 0
47 -8 81 -38 62 -54 83 -64 125 -56 65 12 90 85 60 172 -21 58 -36 146 -29
170 4 16 18 24 57 32 68 14 116 49 186 135 32 38 71 83 87 98 l30 28 -59 117
c-65 129 -103 261 -114 393 -7 78 -7 79 -35 79 -58 0 -88 22 -195 143 -40 45
-57 57 -80 57 -53 0 -56 -16 -13 -83 74 -114 107 -282 89 -455 -6 -51 -25
-183 -44 -295 -19 -111 -38 -237 -41 -280 -9 -90 -3 -89 -121 -31 -185 88
-284 275 -284 535 l0 100 33 13 c17 8 56 19 84 26 97 22 139 81 68 94 -20 4
-51 21 -70 37 -51 45 -66 105 -72 290 l-6 155 49 36 c80 58 111 70 170 66 30
-1 54 -2 54 -2 0 1 -12 28 -27 60 -26 56 -28 69 -33 249 -5 179 -7 193 -32
248 -15 31 -30 57 -33 57 -4 0 -4 -22 0 -49z"/>
<path d="M6907 12023 c-8 -149 -70 -300 -142 -347 -46 -30 -117 -20 -153 23
-12 14 -13 14 -7 -4 4 -11 24 -82 46 -159 43 -147 67 -216 78 -216 3 0 17 37
31 82 60 202 169 367 280 423 l48 24 -19 83 c-33 143 -64 188 -132 188 -23 0
-24 -3 -30 -97z"/>
<path d="M8940 12087 c0 -29 -8 -43 -45 -78 -49 -47 -60 -68 -50 -99 9 -30 69
-27 100 4 49 49 57 153 15 191 -20 18 -20 17 -20 -18z"/>
<path d="M7227 11533 l1 -88 66 -3 c65 -3 66 -3 66 24 0 44 -30 92 -78 124
-25 16 -48 30 -51 30 -3 0 -5 -39 -4 -87z"/>
<path d="M6484 11506 c-12 -11 -32 -29 -45 -38 -20 -13 -22 -20 -13 -35 18
-30 66 -28 97 3 31 30 34 55 11 78 -19 20 -24 19 -50 -8z"/>
<path d="M7095 11458 c22 -109 50 -148 106 -148 26 0 29 3 29 33 0 88 -43 147
-107 147 -34 0 -34 -1 -28 -32z"/>
<path d="M5510 10605 c0 -14 -9 -43 -20 -65 -29 -56 -27 -88 7 -96 52 -13 88
73 61 144 -17 45 -48 56 -48 17z"/>
<path d="M7062 10128 c-22 -22 -12 -46 39 -92 56 -50 77 -56 102 -28 18 20 22
42 8 42 -5 0 -31 20 -59 45 -52 47 -70 53 -90 33z"/>
<path d="M5534 10026 l-27 -22 63 -42 c94 -63 147 -73 193 -34 20 18 23 34 3
26 -18 -7 -74 17 -128 54 -63 42 -74 44 -104 18z"/>
<path d="M5123 10003 c-16 -6 -18 -93 -2 -93 6 0 22 -9 36 -20 14 -11 30 -20
35 -20 10 0 0 85 -13 111 -9 18 -37 28 -56 22z"/>
<path d="M6590 9681 c0 -52 16 -76 44 -65 39 15 48 75 14 98 -43 30 -58 21
-58 -33z"/>
<path d="M6640 9540 c0 -35 26 -92 54 -118 40 -37 84 -52 158 -52 57 0 59 1
52 22 -16 51 -58 98 -108 123 -61 30 -156 45 -156 25z"/>
<path d="M5297 9463 c-21 -5 -47 -53 -47 -85 0 -28 33 -82 82 -137 21 -23 39
-41 40 -41 2 0 5 54 6 119 4 114 3 119 -19 135 -24 16 -30 17 -62 9z"/>
<path d="M4821 9288 c-17 -50 -85 -124 -201 -218 -54 -44 -112 -100 -129 -126
-28 -43 -66 -142 -58 -151 2 -1 71 63 154 145 152 150 224 243 243 314 15 54
8 84 -9 36z"/>
<path d="M5013 9224 c-3 -8 -3 -48 -1 -87 8 -120 77 -225 123 -187 14 12 15
14 1 22 -22 12 -36 72 -36 151 0 59 -3 71 -25 92 -28 28 -53 32 -62 9z"/>
<path d="M5514 9115 c-46 -93 -53 -184 -18 -232 19 -25 88 -62 99 -52 2 3 5
75 7 161 3 141 1 158 -16 177 -11 11 -23 21 -27 21 -4 0 -25 -34 -45 -75z"/>
<path d="M6886 9111 c-17 -7 -13 -11 27 -31 31 -16 84 -62 152 -136 70 -74
119 -119 149 -133 45 -21 186 -41 186 -26 0 15 -102 134 -173 202 -97 92 -178
133 -261 132 -34 0 -70 -4 -80 -8z"/>
<path d="M4917 8916 c-4 -24 -25 -86 -48 -138 -44 -99 -82 -208 -75 -215 12
-12 66 16 106 56 66 66 105 150 105 228 0 51 -4 66 -24 87 -37 40 -57 34 -64
-18z"/>
<path d="M5560 8783 c0 -28 116 -347 146 -403 37 -66 86 -125 138 -163 l29
-21 -7 28 c-4 15 -31 66 -61 114 -75 118 -78 142 -30 255 5 13 2 17 -12 17
-23 0 -50 29 -85 90 -14 25 -34 53 -44 62 -23 20 -74 34 -74 21z"/>
<path d="M5986 8683 c-51 -159 -13 -334 108 -491 58 -77 171 -181 253 -237
l68 -45 3 37 c5 56 28 76 76 68 102 -16 154 -61 236 -205 92 -161 148 -200
282 -200 l78 0 0 29 c0 43 -28 69 -105 97 -72 26 -115 57 -115 82 0 17 -85
161 -146 248 -57 82 -164 180 -175 162 -5 -7 -9 -20 -9 -29 0 -9 -9 -24 -20
-34 -18 -17 -25 -17 -76 -5 -172 42 -304 195 -395 460 -17 52 -35 99 -39 103
-4 5 -15 -13 -24 -40z"/>
<path d="M4142 8652 c-26 -60 -38 -111 -57 -248 -8 -59 -15 -109 -15 -111 0
-13 54 2 78 22 82 69 117 314 52 367 -12 10 -26 18 -30 18 -4 0 -17 -22 -28
-48z"/>
<path d="M5155 8658 c7 -34 37 -73 68 -89 14 -8 17 -5 17 22 0 22 -10 41 -34
65 -44 44 -60 44 -51 2z"/>
<path d="M5190 8513 c-53 -20 -108 -106 -117 -182 -5 -47 9 -115 27 -126 13
-8 33 38 55 118 12 46 25 74 43 87 30 24 69 26 94 3 14 -13 21 -14 30 -5 9 9
7 16 -9 27 -13 9 -23 28 -25 48 -3 30 -6 32 -43 34 -22 1 -47 -1 -55 -4z"/>
<path d="M4719 8155 c-19 -42 -20 -53 -9 -88 15 -51 48 -103 94 -146 41 -40
41 -41 26 77 -10 79 -41 161 -71 188 -18 16 -20 15 -40 -31z"/>
<path d="M4404 8008 c-22 -63 -25 -221 -6 -285 13 -42 56 -103 73 -103 5 0 9
19 9 43 0 52 22 87 56 87 30 0 30 9 0 96 -41 118 -89 214 -108 214 -3 0 -14
-24 -24 -52z"/>
<path d="M4138 7855 c-9 -20 -7 -39 11 -99 16 -52 20 -86 15 -112 -5 -27 -4
-35 5 -30 7 4 34 0 61 -10 27 -10 53 -15 56 -11 4 4 2 24 -4 44 -6 21 -19 66
-28 101 -18 68 -65 142 -89 142 -9 0 -21 -11 -27 -25z"/>
<path d="M6190 7590 c0 -34 28 -79 60 -95 27 -14 30 -14 30 0 0 29 -28 82 -51
99 -31 21 -39 20 -39 -4z"/>
<path d="M3816 7418 c-9 -12 -16 -34 -16 -49 0 -32 32 -75 48 -65 27 16 22
124 -5 133 -6 2 -18 -6 -27 -19z"/>
<path d="M4495 7433 c-58 -12 -105 -36 -105 -53 0 -28 58 -78 113 -96 66 -22
150 -15 180 14 32 32 29 88 -7 118 -23 20 -37 24 -94 23 -37 -1 -76 -3 -87 -6z"/>
<path d="M5412 7360 c-10 -17 -22 -20 -86 -20 -85 0 -102 -11 -91 -60 5 -21
12 -30 27 -30 17 0 18 -2 8 -15 -7 -9 -11 -18 -8 -20 2 -3 28 18 56 46 37 36
58 50 74 47 22 -3 23 -7 29 -143 9 -195 28 -269 89 -339 35 -39 87 -72 98 -61
4 4 7 43 6 88 -1 103 -38 219 -126 400 -58 117 -64 126 -76 107z"/>
<path d="M3350 7324 c-79 -34 -115 -95 -160 -274 -17 -68 -38 -139 -46 -158
l-14 -35 22 19 c62 54 102 115 205 316 37 73 70 136 71 140 6 13 -41 8 -78 -8z"/>
<path d="M4871 7160 c-16 -72 -14 -196 4 -265 35 -140 118 -270 324 -509 181
-210 245 -318 266 -444 l7 -43 -39 16 c-62 25 -78 50 -183 280 -46 102 -89
141 -128 117 -10 -7 -7 -21 12 -64 36 -81 56 -201 63 -376 6 -151 6 -152 30
-158 30 -8 43 4 63 59 14 38 19 42 50 42 34 0 36 -1 59 -70 21 -58 25 -90 25
-185 1 -109 -1 -119 -30 -181 -17 -36 -56 -95 -87 -131 l-55 -66 48 -6 c61 -8
104 -46 120 -107 8 -29 11 -86 7 -171 -8 -194 21 -291 102 -333 l28 -14 7 47
c57 412 59 438 60 667 1 236 -5 294 -46 467 -24 101 -23 105 54 144 59 30 71
51 62 110 -10 70 -39 101 -139 153 -111 57 -130 82 -138 183 -12 152 -66 253
-229 429 -184 199 -219 253 -225 347 -4 70 -17 94 -60 106 -19 6 -22 1 -32
-44z"/>
<path d="M6510 7153 c0 -27 43 -180 56 -203 15 -24 74 -69 74 -56 0 24 -23
168 -31 193 -12 36 -52 73 -80 73 -11 0 -19 -3 -19 -7z"/>
<path d="M4348 7043 c-62 -135 -48 -293 39 -443 48 -83 234 -270 407 -409 145
-116 142 -117 85 32 -35 92 -40 176 -14 227 17 33 17 34 -6 51 -13 10 -27 19
-30 19 -19 0 -60 108 -78 205 -37 193 -67 266 -122 295 -19 11 -20 9 -14 -37
13 -118 35 -335 41 -410 6 -81 6 -83 -15 -83 -34 0 -98 37 -124 72 -37 49 -55
115 -72 261 -18 152 -42 274 -56 283 -5 3 -24 -25 -41 -63z"/>
<path d="M3800 6973 c-9 -197 0 -258 38 -251 25 5 53 100 59 198 4 73 2 89
-16 118 -15 23 -28 32 -48 32 l-28 0 -5 -97z"/>
<path d="M7416 7043 c8 -39 -15 -89 -61 -133 -37 -36 -45 -70 -20 -90 12 -10
20 -8 41 9 19 15 41 21 77 21 l49 0 -7 58 c-8 67 -27 111 -61 143 l-24 23 6
-31z"/>
<path d="M2882 7009 c-44 -22 -56 -35 -137 -147 -25 -34 -60 -71 -78 -82 l-32
-20 45 0 c74 0 128 41 177 135 14 28 39 69 55 93 33 48 30 50 -30 21z"/>
<path d="M3536 6923 c5 -10 8 -69 6 -131 -2 -124 9 -167 52 -195 22 -15 22
-15 18 37 -2 31 4 90 17 150 25 113 18 138 -40 150 -52 10 -62 8 -53 -11z"/>
<path d="M2856 6793 c-21 -55 -41 -123 -44 -155 -5 -57 -4 -58 20 -58 103 0
190 208 119 284 -41 43 -53 35 -95 -71z"/>
<path d="M4030 6874 c0 -45 43 -253 66 -324 40 -118 91 -186 171 -229 21 -11
21 -8 -8 53 -16 35 -48 126 -69 202 -45 157 -85 246 -129 288 -28 27 -31 28
-31 10z"/>
<path d="M3214 6677 c0 -21 -15 -54 -42 -94 -23 -34 -42 -73 -42 -86 0 -27 30
-60 37 -40 2 6 22 40 44 75 70 113 84 145 69 162 -7 9 -24 16 -39 16 -23 0
-26 -4 -27 -33z"/>
<path d="M2644 6651 c-57 -35 -102 -126 -89 -179 10 -43 44 -72 82 -72 l33 0
0 64 c0 60 3 69 45 130 25 37 45 68 45 71 0 13 -89 3 -116 -14z"/>
<path d="M2171 6469 c-1 -10 -18 -41 -38 -70 -122 -178 -123 -180 -123 -220 0
-22 7 -53 15 -70 15 -29 15 -29 -12 -40 -137 -51 -281 -167 -333 -268 -36 -71
-52 -170 -40 -249 15 -96 75 -214 153 -298 l63 -68 1 95 c2 122 33 244 107
414 137 313 166 385 190 468 30 102 42 225 28 282 -6 22 -10 33 -11 24z"/>
<path d="M2297 6388 c-45 -160 -53 -304 -22 -402 21 -67 72 -140 130 -186 l40
-32 3 38 c2 20 -4 119 -13 220 -13 146 -14 198 -5 264 6 45 13 87 15 93 5 14
-80 57 -112 57 -17 0 -24 -10 -36 -52z"/>
<path d="M3890 6350 l0 -91 68 3 c66 3 67 3 70 33 5 41 -14 101 -40 125 -14
13 -36 20 -60 20 l-38 0 0 -90z"/>
<path d="M4924 6014 c-4 -14 -1 -43 5 -65 14 -47 42 -52 67 -13 23 35 9 73
-33 91 -31 12 -33 12 -39 -13z"/>
<path d="M3030 5846 c0 -100 17 -171 66 -282 44 -101 22 -165 -111 -320 -47
-55 -85 -102 -85 -106 0 -9 31 -12 70 -9 47 5 89 42 179 161 50 65 105 129
122 141 41 29 97 29 139 -1 l32 -23 -7 54 c-10 83 -32 151 -59 184 l-24 30
-32 -18 c-62 -37 -99 -9 -167 128 -52 104 -88 155 -109 155 -11 0 -14 -19 -14
-94z"/>
<path d="M5977 5787 c-60 -150 -80 -297 -53 -389 9 -32 20 -60 26 -63 5 -3 14
14 20 37 6 24 34 105 61 182 57 156 64 221 31 265 -35 48 -56 40 -85 -32z"/>
<path d="M3492 5618 c6 -32 30 -88 59 -139 51 -88 69 -135 69 -180 0 -24 8
-30 63 -52 34 -13 89 -32 122 -41 213 -60 334 -110 406 -167 l39 -31 35 31
c72 62 133 34 293 -135 64 -68 120 -124 123 -124 11 0 29 85 29 132 0 61 -41
138 -101 192 -60 54 -193 120 -354 176 l-121 41 4 63 4 63 -55 6 c-31 3 -95
22 -144 41 -48 20 -104 39 -124 42 -31 5 -38 3 -43 -14 -10 -31 17 -74 74
-118 80 -61 55 -104 -43 -74 -55 16 -110 70 -168 166 -61 102 -92 140 -130
159 -44 23 -47 20 -37 -37z"/>
<path d="M2400 5583 c0 -87 48 -134 122 -119 45 9 58 24 58 68 0 30 -7 46 -29
69 -26 26 -36 29 -90 29 l-61 0 0 -47z"/>
<path d="M4594 5594 c-6 -3 4 -20 23 -40 40 -43 43 -64 6 -64 -17 0 -38 13
-63 39 -20 21 -47 44 -59 50 -18 10 -21 9 -21 -7 0 -70 70 -220 134 -286 39
-39 163 -113 173 -102 2 1 -3 18 -11 37 -7 19 -21 77 -31 129 -23 130 -42 194
-62 219 -18 21 -67 35 -89 25z"/>
<path d="M4160 5542 c0 -85 29 -123 103 -137 63 -12 77 -1 77 61 0 45 -5 59
-29 86 -24 27 -36 32 -90 36 l-61 4 0 -50z"/>
<path d="M4887 5493 c9 -64 43 -153 94 -253 67 -132 79 -171 79 -256 0 -40 5
-85 11 -101 l11 -28 14 30 c7 17 13 45 14 62 0 18 11 101 25 185 25 150 31
250 18 296 -4 18 -11 22 -27 18 -11 -4 -46 -9 -77 -12 -65 -7 -93 6 -131 61
-30 45 -38 44 -31 -2z"/>
<path d="M1355 5471 c-9 -31 -80 -89 -150 -123 -46 -23 -64 -37 -61 -48 3 -8
12 -62 22 -119 19 -118 15 -231 -10 -280 -16 -30 -16 -31 4 -31 62 0 167 95
219 199 45 89 64 172 59 257 -7 100 -65 202 -83 145z"/>
<path d="M6550 5394 c0 -4 7 -54 16 -113 30 -210 91 -399 142 -445 l22 -19 -7
160 c-7 184 1 233 53 319 19 31 34 58 34 60 0 3 -11 -3 -25 -12 -13 -8 -45
-22 -70 -30 l-46 -13 -50 49 c-45 45 -69 60 -69 44z"/>
<path d="M3153 5198 c-13 -24 -18 -56 -18 -118 0 -73 4 -92 27 -135 68 -128
207 -204 331 -181 30 6 35 11 40 41 13 79 -22 129 -128 182 -38 19 -76 40 -83
47 -8 7 -15 37 -16 67 -3 68 -19 97 -61 115 -53 22 -72 18 -92 -18z"/>
<path d="M6195 4896 c-84 -128 -142 -166 -253 -166 l-67 0 -48 -89 c-39 -74
-44 -90 -31 -95 55 -21 115 6 266 121 57 43 118 85 136 92 30 13 35 12 59 -10
110 -102 65 -294 -70 -294 -38 0 -39 0 -16 -15 13 -8 52 -39 87 -67 58 -48 69
-53 112 -53 48 0 48 0 44 -30 -3 -17 -16 -49 -29 -73 -41 -70 -32 -117 22
-117 28 0 42 8 75 45 35 38 47 45 79 45 44 0 58 -16 109 -128 45 -98 60 -109
60 -46 0 72 -14 111 -105 304 -102 216 -125 295 -125 442 l0 108 -31 0 c-24 0
-42 -11 -79 -50 -54 -56 -94 -66 -130 -30 -24 24 -25 47 -5 123 18 69 18 67 5
67 -5 0 -34 -38 -65 -84z"/>
<path d="M3946 4912 c-6 -10 59 -74 124 -122 147 -110 176 -171 119 -251 l-20
-29 21 0 c85 0 243 54 303 104 l29 23 -45 26 c-25 15 -108 69 -185 121 -77 52
-166 103 -197 115 -56 21 -139 28 -149 13z"/>
<path d="M3706 4895 c-12 -33 29 -100 72 -116 27 -10 65 5 60 25 -3 11 -111
106 -122 106 -2 0 -6 -7 -10 -15z"/>
<path d="M2966 4862 c11 -34 14 -86 12 -227 -3 -171 -2 -184 17 -205 23 -25
57 -44 99 -54 l29 -7 -6 83 c-3 46 -13 117 -22 158 -18 81 -79 217 -119 265
l-25 30 15 -43z"/>
<path d="M2393 4827 c75 -98 124 -269 107 -372 -9 -54 -38 -125 -52 -125 -10
0 -43 53 -102 165 -92 176 -149 229 -222 205 l-35 -12 25 -23 c13 -12 31 -36
40 -54 19 -36 31 -150 19 -168 -5 -6 -35 -27 -68 -45 -72 -40 -75 -52 -49
-175 15 -73 16 -97 6 -191 -20 -177 -16 -250 14 -310 14 -29 43 -67 65 -85
l38 -33 75 8 c97 10 219 55 306 113 44 30 117 97 197 183 71 75 160 170 200
209 80 81 78 84 -41 53 -121 -31 -176 -67 -326 -219 -149 -151 -203 -198 -269
-231 -43 -21 -45 -21 -58 -4 -7 10 -13 20 -13 23 0 3 -13 15 -30 26 -34 23
-55 65 -46 92 4 13 24 24 58 33 63 16 108 56 108 97 0 31 -33 108 -57 135 -19
22 -24 18 57 51 92 38 191 116 290 230 l86 98 -41 82 c-22 45 -53 110 -69 145
-45 96 -111 142 -208 142 l-38 0 33 -43z"/>
<path d="M2720 4823 c1 -47 2 -49 47 -71 l46 -23 -6 52 c-7 58 -29 89 -64 89
-21 0 -23 -4 -23 -47z"/>
<path d="M948 4676 c-71 -19 -74 -24 -81 -134 -4 -55 -19 -147 -35 -212 -38
-150 -46 -218 -32 -282 16 -81 18 -82 82 -63 73 21 96 11 139 -60 23 -38 47
-63 72 -77 22 -11 41 -18 43 -16 2 3 -10 36 -26 75 -70 166 -105 370 -89 515
10 90 38 162 86 225 l33 43 -73 -1 c-39 0 -93 -6 -119 -13z"/>
<path d="M5020 4654 c0 -14 18 -80 40 -145 46 -138 51 -208 20 -276 l-19 -43
33 0 c42 0 81 30 96 74 7 21 10 91 8 180 l-3 146 -31 0 c-24 0 -40 10 -72 45
-47 51 -72 58 -72 19z"/>
<path d="M6727 4583 c-13 -12 -7 -93 8 -131 32 -74 75 -100 108 -64 22 24 21
27 -5 29 -30 3 -46 26 -54 82 -9 65 -36 105 -57 84z"/>
<path d="M3753 4535 c-77 -21 -120 -45 -250 -144 -122 -92 -179 -125 -247
-145 l-41 -12 35 -22 c19 -12 43 -22 53 -22 29 0 83 26 134 65 63 48 91 45
120 -15 22 -44 22 -44 23 -15 1 42 34 111 63 129 23 16 29 14 133 -28 298
-120 457 -215 627 -375 77 -73 90 -95 123 -199 29 -96 59 -137 160 -223 87
-73 144 -129 144 -141 0 -5 -18 -8 -40 -8 -22 0 -40 -3 -40 -6 0 -7 50 -79
120 -174 30 -41 67 -102 82 -136 40 -89 62 -227 54 -349 -12 -197 -67 -357
-238 -695 l-109 -215 12 -58 c59 -281 -184 -436 -753 -481 -80 -6 -77 -13 -53
130 21 122 59 232 104 301 48 73 143 162 221 204 l60 34 0 137 c0 155 0 155
-75 124 -56 -24 -62 -50 -37 -169 29 -135 29 -138 -8 -131 -53 11 -118 -5
-156 -38 -20 -17 -53 -66 -74 -108 -44 -88 -80 -134 -121 -155 -45 -24 -66
-19 -84 19 -21 43 -99 117 -153 145 -43 22 -106 27 -132 11 -17 -10 -17 -10
30 -32 51 -22 99 -66 132 -118 53 -83 80 -195 134 -552 3 -22 2 -38 -4 -38 -6
0 -84 -33 -174 -74 -205 -93 -279 -116 -373 -116 -85 0 -140 17 -205 64 l-47
34 -12 -39 c-19 -63 -67 -91 -220 -129 -47 -12 -96 -27 -110 -35 l-25 -13 39
-11 c224 -64 461 -47 691 47 38 16 189 90 335 164 361 185 504 228 700 214
l87 -7 26 45 c67 114 257 216 404 216 90 0 140 -18 196 -72 27 -26 51 -48 52
-48 1 0 7 15 14 34 15 47 64 113 165 222 65 70 83 96 71 100 -27 10 -79 -14
-141 -66 -88 -73 -132 -65 -95 17 34 76 93 105 304 149 118 25 197 52 209 71
9 14 -86 44 -158 50 -114 10 -228 -34 -427 -165 -59 -39 -120 -78 -137 -87
-30 -15 -31 -15 -37 11 -11 41 4 204 26 290 25 99 104 259 169 345 213 280
559 457 906 463 52 0 95 3 95 5 0 2 -11 12 -25 23 -30 23 -32 44 -6 58 34 18
84 11 149 -20 35 -17 69 -30 76 -30 12 0 56 41 56 52 0 11 -76 36 -141 48
-111 19 -169 48 -169 85 0 3 70 5 155 3 147 -3 155 -2 176 19 l22 21 -49 7
c-61 9 -84 21 -84 42 0 33 99 110 278 217 223 134 300 195 336 267 14 29 26
64 26 78 -1 43 -35 103 -89 156 -56 54 -58 54 -36 2 19 -47 19 -128 -1 -175
-58 -140 -240 -181 -351 -79 -26 23 -29 37 -10 37 29 0 97 73 129 137 56 115
42 237 -35 283 -55 34 -62 29 -63 -53 -2 -82 -21 -142 -66 -208 -66 -98 -158
-126 -220 -69 -31 29 -32 32 -14 43 98 62 113 76 134 117 41 82 22 154 -57
205 -22 15 -88 47 -147 71 -126 52 -164 74 -198 115 -31 36 -26 51 30 105 31
29 44 49 44 68 0 38 -19 41 -99 15 l-71 -23 -30 22 c-28 21 -30 21 -39 4 -5
-10 -21 -60 -36 -112 -14 -51 -33 -106 -41 -122 -22 -43 -70 -68 -131 -68
l-53 0 -1 -87 c0 -59 -8 -118 -24 -178 l-23 -90 24 -18 c13 -10 51 -57 85
-104 53 -73 126 -143 149 -143 3 0 -5 33 -18 73 -33 97 -41 240 -18 321 31
105 138 186 248 186 25 0 28 -4 28 -30 0 -22 -12 -43 -40 -74 -45 -48 -49 -72
-20 -103 25 -27 52 -21 146 36 81 49 123 53 160 16 46 -46 15 -118 -86 -204
-68 -57 -110 -106 -110 -128 0 -9 16 -13 53 -13 106 0 210 -40 429 -165 48
-28 87 -53 88 -57 0 -11 -146 -117 -263 -190 -96 -59 -733 -388 -753 -388 -3
0 -4 9 -1 21 14 54 -43 113 -173 177 -52 26 -109 52 -125 58 -53 19 -125 185
-125 289 0 48 9 85 21 85 4 0 34 10 65 21 98 37 176 126 186 214 3 28 1 30
-29 29 -17 -1 -45 -11 -61 -22 -15 -11 -40 -24 -55 -27 -30 -8 -77 1 -77 14 0
4 23 34 50 65 28 31 50 61 50 66 0 9 -39 40 -50 40 -3 0 -11 -13 -18 -29 -13
-30 -64 -61 -102 -61 -21 0 -21 1 -4 29 10 16 40 58 69 93 52 66 78 112 90
161 6 23 4 27 -14 27 -44 0 -93 -31 -168 -106 -65 -65 -149 -122 -161 -109 -2
2 8 19 22 37 80 106 132 335 106 472 -20 105 -60 153 -140 163 -22 3 -40 4
-40 1 0 -2 9 -21 20 -43 28 -54 27 -193 0 -301 -23 -91 -62 -194 -72 -194 -13
0 -64 83 -116 186 -28 55 -62 115 -77 132 -25 30 -29 31 -83 26 -38 -4 -79 -1
-122 10 -60 15 -488 214 -489 227 -1 3 9 10 22 16 12 6 30 25 40 42 l18 31
-43 -1 c-24 0 -67 -7 -95 -14z"/>
<path d="M2805 4441 c-3 -10 -15 -21 -25 -24 -16 -4 -20 -14 -20 -45 0 -46 19
-67 53 -58 26 6 47 43 47 82 0 53 -41 87 -55 45z"/>
<path d="M6976 4372 c-16 -7 -12 -14 30 -56 66 -65 151 -113 343 -196 197 -85
260 -117 332 -174 48 -37 108 -111 122 -149 6 -15 103 77 123 115 22 42 18 58
-13 58 -16 0 -51 6 -80 14 -106 28 -189 76 -410 237 -54 40 -136 90 -182 112
-72 34 -96 40 -165 43 -45 2 -89 0 -100 -4z"/>
<path d="M4015 4080 c-3 -5 3 -18 15 -30 23 -23 86 -27 114 -7 17 13 15 15
-23 30 -46 19 -97 22 -106 7z"/>
<path d="M1630 3906 c0 -21 -63 -38 -121 -34 -49 3 -50 2 -44 -22 11 -46 80
-153 118 -184 29 -23 49 -31 95 -34 37 -2 63 1 74 10 16 12 16 18 -2 96 -23
98 -40 133 -76 161 -31 25 -44 27 -44 7z"/>
<path d="M3797 3823 c-4 -3 -7 -29 -7 -56 0 -91 59 -149 115 -113 30 20 32 37
6 53 -11 7 -25 29 -31 50 -20 60 -59 91 -83 66z"/>
<path d="M4020 3582 c0 -28 47 -82 87 -98 18 -8 47 -14 65 -14 32 0 78 23 78
39 0 10 -53 32 -135 59 -33 10 -68 22 -77 27 -14 5 -18 2 -18 -13z"/>
<path d="M6980 3557 c-11 -24 -48 -76 -81 -117 -102 -124 -134 -184 -108 -201
43 -27 148 2 196 53 65 69 98 224 59 282 -24 37 -43 32 -66 -17z"/>
<path d="M8196 3521 c-15 -6 -11 -10 24 -26 66 -30 121 -93 205 -234 42 -71
94 -145 114 -164 37 -36 111 -80 120 -72 9 9 -126 269 -179 343 -86 123 -202
185 -284 153z"/>
<path d="M7831 3438 c48 -160 136 -273 266 -341 40 -21 143 -66 230 -102 l158
-64 -55 49 c-30 28 -132 106 -227 175 -176 128 -311 246 -354 309 -13 20 -27
36 -31 36 -3 0 2 -28 13 -62z"/>
<path d="M1590 3410 c0 -143 69 -199 259 -208 l104 -5 -29 38 c-45 60 -150
141 -246 190 l-88 46 0 -61z"/>
<path d="M3115 3360 c-10 -31 3 -57 35 -70 48 -20 110 0 110 35 0 8 -102 55
-119 55 -11 0 -23 -9 -26 -20z"/>
<path d="M4340 3363 c1 -34 37 -99 75 -132 64 -56 131 -75 177 -50 20 11 19
11 -9 28 -15 10 -53 46 -83 81 -53 61 -98 90 -140 90 -12 0 -20 -7 -20 -17z"/>
<path d="M5240 3155 l0 -45 71 0 71 0 -6 28 c-10 41 -41 62 -92 62 l-44 0 0
-45z"/>
<path d="M1370 3167 c-8 -7 -23 -22 -33 -34 -18 -21 -18 -21 67 -67 176 -96
283 -118 366 -76 22 11 40 21 40 23 0 1 -26 1 -58 -1 -71 -4 -125 18 -201 83
-28 24 -64 53 -80 64 -32 23 -78 27 -101 8z"/>
<path d="M1292 2908 c-7 -7 -12 -15 -12 -20 0 -4 41 -28 91 -53 107 -53 162
-59 197 -22 l21 22 -42 -3 c-35 -3 -54 4 -117 42 -76 46 -116 56 -138 34z"/>
<path d="M2429 2861 c-13 -11 -22 -21 -19 -24 3 -3 54 -35 114 -71 167 -101
232 -103 146 -4 -95 108 -185 145 -241 99z"/>
<path d="M4610 2846 c0 -71 101 -130 130 -76 9 16 7 22 -7 27 -10 3 -37 24
-60 45 -24 21 -47 38 -53 38 -5 0 -10 -15 -10 -34z"/>
<path d="M8466 2858 c-17 -10 -15 -13 25 -27 34 -13 51 -28 76 -66 69 -107 83
-125 113 -140 l30 -16 0 38 c-1 129 -156 263 -244 211z"/>
<path d="M1246 2754 c8 -20 27 -55 41 -78 96 -153 203 -213 312 -175 37 13 41
29 6 29 -47 0 -127 51 -219 139 -132 127 -166 147 -140 85z"/>
<path d="M4491 2701 c-34 -22 18 -177 84 -250 29 -32 44 -41 70 -41 40 0 66
25 36 35 -23 7 -46 52 -61 119 -19 84 -36 116 -74 131 -41 17 -37 17 -55 6z"/>
<path d="M8818 2593 c-16 -15 -16 -17 5 -28 18 -8 23 -21 27 -69 6 -65 21 -83
62 -73 32 8 42 44 28 96 -19 73 -84 112 -122 74z"/>
<path d="M1145 2498 c32 -105 158 -188 285 -188 56 0 110 15 110 30 0 4 -18
10 -40 14 -23 3 -110 42 -195 86 -84 44 -156 80 -160 80 -3 0 -3 -10 0 -22z"/>
<path d="M2446 2447 c-7 -37 7 -125 25 -160 7 -12 35 -55 63 -96 l51 -73 130
5 c72 2 146 11 165 18 39 14 100 51 100 60 0 4 -26 9 -57 11 -83 6 -124 30
-224 130 -89 89 -137 119 -210 132 -35 6 -37 5 -43 -27z"/>
<path d="M1786 2281 c-23 -25 -24 -24 38 -41 96 -26 184 -108 378 -351 170
-213 240 -269 338 -269 61 0 115 27 175 86 l50 49 -182 3 -181 2 -29 34 c-32
35 -80 111 -191 301 -39 66 -85 137 -104 158 l-33 39 -120 5 c-113 4 -122 3
-139 -16z"/>
<path d="M3670 2273 c0 -93 151 -205 233 -174 32 13 36 53 10 108 -26 56 -80
85 -168 91 l-75 5 0 -30z"/>
<path d="M1293 2253 c-16 -6 -18 -93 -2 -93 6 0 22 -9 36 -20 14 -11 30 -20
34 -20 10 0 0 87 -12 111 -9 18 -37 28 -56 22z"/>
<path d="M3400 2186 c0 -36 31 -118 60 -161 47 -68 231 -227 247 -212 10 11
-27 161 -53 215 -44 90 -118 149 -213 171 -38 8 -41 7 -41 -13z"/>
<path d="M322 2138 c-25 -25 -7 -68 29 -68 9 0 29 10 44 22 l28 22 -23 18
c-26 21 -61 23 -78 6z"/>
<path d="M3080 1878 c0 -92 31 -147 66 -117 31 26 10 101 -40 148 l-26 24 0
-55z"/>
<path d="M4425 1831 c-111 -50 -191 -220 -165 -347 6 -28 18 -60 26 -70 15
-18 15 -17 9 9 -9 45 13 158 45 223 16 33 52 91 81 128 28 37 49 69 47 71 -2
2 -21 -4 -43 -14z"/>
<path d="M5990 1731 c-54 -18 -97 -45 -151 -98 l-55 -54 -39 36 c-108 98 -268
112 -345 30 l-23 -25 67 0 c69 0 106 -12 105 -33 0 -7 -31 -27 -69 -45 -79
-38 -170 -115 -194 -166 -30 -64 -15 -126 22 -92 29 26 104 53 162 60 49 5
138 -7 206 -29 17 -5 23 -2 27 17 20 79 124 172 247 221 99 39 233 72 238 58
2 -6 18 -32 35 -58 46 -67 106 -96 296 -143 176 -44 239 -70 288 -122 28 -29
53 -75 53 -97 0 -4 -26 5 -57 21 -106 51 -308 70 -308 28 0 -11 18 -16 70 -21
41 -3 81 -12 96 -22 39 -26 109 -113 109 -135 0 -24 -26 -46 -72 -61 -35 -12
-66 -37 -56 -46 2 -3 74 -5 159 -6 124 -1 162 2 197 16 40 16 42 19 42 60 0
33 -8 55 -37 96 -45 66 -54 113 -39 190 7 33 9 64 4 73 -11 19 -53 30 -188 51
-137 22 -187 43 -371 156 -85 53 -179 106 -209 119 -59 24 -167 36 -210 21z"/>
<path d="M1785 1720 c-8 -14 211 -120 262 -127 23 -3 50 0 64 7 22 12 21 14
-31 27 -30 7 -98 34 -151 58 -95 45 -132 54 -144 35z"/>
<path d="M3010 1518 c-25 -5 -112 -28 -195 -51 -136 -38 -161 -41 -270 -42
-110 0 -124 2 -173 26 l-54 27 7 -25 c9 -39 51 -99 87 -126 115 -87 322 -50
536 97 l83 56 45 -32 c43 -31 49 -32 177 -38 73 -4 133 -6 135 -5 1 1 -14 19
-35 40 -58 60 -123 85 -218 84 -44 -1 -100 -5 -125 -11z"/>
<path d="M690 1382 c0 -171 36 -252 110 -252 26 0 28 2 24 38 -2 20 -5 73 -8
117 -3 72 -18 126 -43 162 -5 7 -25 19 -46 28 l-37 15 0 -108z"/>
<path d="M3005 1348 l-13 -33 86 -8 c91 -9 132 0 132 28 0 10 -10 15 -34 15
-18 0 -53 7 -76 15 -63 22 -79 19 -95 -17z"/>
<path d="M2236 1324 c-17 -43 45 -78 89 -50 34 22 31 34 -10 52 -45 18 -71 18
-79 -2z"/>
<path d="M1692 1299 c-39 -15 -20 -34 30 -31 32 2 52 -3 68 -16 l23 -19 -17
-63 c-10 -35 -20 -69 -23 -76 -3 -7 8 -15 26 -19 24 -5 46 1 94 24 35 17 73
31 85 31 18 0 22 6 22 33 0 18 -7 43 -16 55 -22 31 -99 68 -169 81 -69 13 -92
13 -123 0z"/>
<path d="M5660 1257 c-95 -29 -171 -70 -229 -124 l-46 -43 50 21 c72 31 182
36 302 13 108 -20 267 -24 326 -7 20 6 37 9 37 7 0 -3 -11 -26 -25 -52 -35
-65 -32 -76 19 -96 25 -10 118 -68 208 -131 171 -120 258 -168 320 -179 47 -8
109 8 133 34 22 24 23 24 -93 20 -95 -2 -112 6 -112 56 0 42 25 60 101 74 30
6 60 18 67 28 12 16 5 18 -91 24 -116 8 -200 34 -237 73 l-23 25 24 26 c13 14
49 39 79 54 76 38 108 66 94 80 -8 8 -35 -1 -99 -32 -80 -38 -97 -43 -181 -46
l-92 -4 -25 39 c-34 54 -91 101 -156 131 -83 37 -246 41 -351 9z"/>
<path d="M2923 1170 c-13 -5 -23 -16 -23 -23 0 -19 170 -33 200 -17 39 21 24
40 -32 40 -29 0 -69 2 -88 5 -19 3 -45 0 -57 -5z"/>
<path d="M2236 1108 c-8 -12 -13 -25 -10 -29 9 -15 115 -49 154 -49 29 0 43 6
55 23 15 21 14 22 -20 29 -19 4 -53 17 -75 28 -51 26 -85 25 -104 -2z"/>
<path d="M4795 1075 c-27 -8 -79 -29 -114 -49 l-65 -34 -4 -120 c-3 -101 -1
-121 13 -135 22 -22 35 -21 35 2 0 24 19 39 94 76 36 18 66 40 73 55 12 25 12
25 -47 35 -111 19 -104 46 30 107 104 48 119 59 93 69 -26 11 -52 9 -108 -6z"/>
<path d="M758 902 c-23 -10 58 -70 332 -242 196 -123 264 -172 388 -277 l26
-22 -28 -7 c-46 -11 -206 2 -294 25 -190 49 -239 49 -178 -1 26 -21 38 -40 42
-69 l7 -39 86 0 c131 0 435 -18 876 -50 475 -35 901 -51 1115 -42 l155 7 90
52 c129 75 164 82 256 55 122 -36 203 -26 460 56 85 28 186 56 223 63 122 21
228 -2 313 -69 21 -16 65 -38 98 -49 50 -17 62 -25 80 -58 39 -75 67 -73 173
15 41 33 78 60 84 60 15 0 124 -56 159 -82 31 -23 77 -109 100 -185 7 -24 14
-43 15 -43 23 0 130 66 173 106 69 64 112 135 154 252 27 74 35 89 47 81 8 -5
53 -21 100 -35 113 -35 157 -58 180 -96 17 -29 18 -34 4 -66 -8 -19 -13 -37
-11 -39 6 -5 35 68 42 104 4 18 2 48 -4 66 -10 30 -19 36 -89 60 -128 45 -309
82 -492 101 -54 6 -55 6 -30 -12 55 -38 130 -116 140 -147 12 -35 3 -72 -23
-93 -12 -10 -23 -1 -65 57 -121 162 -273 269 -397 279 -72 5 -183 -16 -150
-29 11 -4 41 -8 66 -8 42 -1 91 -22 78 -35 -3 -3 -21 -1 -40 4 -143 42 -424
52 -784 30 -104 -7 -224 -9 -265 -5 -70 7 -73 8 -48 21 14 7 35 33 46 57 35
75 42 197 11 197 -43 0 -168 -159 -204 -258 -17 -45 -23 -53 -52 -58 -25 -5
-46 1 -92 25 -33 17 -68 31 -77 31 -9 0 -41 -25 -71 -55 -98 -97 -259 -169
-442 -195 -134 -20 -421 -8 -551 23 -116 28 -229 66 -304 104 -49 25 -49 25
-128 9 -228 -46 -401 2 -709 196 -205 129 -287 174 -369 201 -79 27 -194 42
-222 29z"/>
<path d="M1761 898 c-19 -5 -43 -15 -53 -22 -16 -11 -9 -14 50 -19 37 -3 126
-22 197 -43 183 -53 260 -49 295 16 10 19 8 20 -54 20 -36 0 -129 14 -206 30
-150 32 -175 34 -229 18z"/>
<path d="M5053 890 c-41 -16 -54 -80 -17 -80 33 0 84 30 99 59 l16 31 -38 -1
c-21 0 -48 -4 -60 -9z"/>
<path d="M5563 846 c-65 -21 -123 -59 -178 -117 -35 -36 -41 -47 -22 -35 46
28 203 75 295 87 83 11 161 6 227 -16 11 -4 2 5 -20 19 -95 62 -223 88 -302
62z"/>
<path d="M4264 797 c-22 -7 -52 -19 -65 -28 -20 -14 -22 -19 -11 -32 13 -15
17 -14 50 3 68 37 112 17 78 -35 -9 -13 -16 -27 -16 -31 0 -13 108 4 134 21
28 18 42 55 32 80 -13 34 -117 45 -202 22z"/>
<path d="M6010 676 c0 -3 9 -20 20 -38 26 -43 25 -58 -3 -58 -34 0 -67 -28
-67 -55 0 -20 11 -30 52 -51 140 -71 178 -119 178 -227 l0 -67 104 0 c189 0
331 46 429 139 29 27 63 68 75 90 l22 39 -27 6 c-49 11 -94 -11 -160 -76 -58
-57 -65 -62 -115 -65 -83 -7 -147 38 -417 286 -50 46 -91 81 -91 77z"/>
<path d="M6767 560 c-3 -14 -14 -21 -34 -22 -40 -2 -41 -2 -120 6 -64 6 -74 5
-92 -13 -46 -46 19 -77 131 -61 116 17 170 51 147 93 -13 23 -25 22 -32 -3z"/>
</g>
</svg>
