<?xml version="1.0" standalone="no"?>
<!DOCTYPE svg PUBLIC "-//W3C//DTD SVG 20010904//EN"
 "http://www.w3.org/TR/2001/REC-SVG-20010904/DTD/svg10.dtd">
<svg version="1.0" xmlns="http://www.w3.org/2000/svg"
 width="1280.000000pt" height="1204.000000pt" viewBox="0 0 1280.000000 1204.000000"
 preserveAspectRatio="xMidYMid meet">
<metadata>
Created by potrace 1.15, written by Peter Selinger 2001-2017
</metadata>
<g transform="translate(0.000000,1204.000000) scale(0.100000,-0.100000)"
fill="#000000" stroke="none">
<path d="M4845 12016 c-73 -36 -149 -46 -408 -55 -249 -10 -272 -14 -377 -73
-271 -151 -530 -442 -585 -656 -12 -45 -15 -102 -13 -228 l3 -169 -53 -85
c-80 -128 -180 -331 -198 -402 -26 -100 -15 -207 29 -300 43 -88 104 -161 160
-190 24 -12 69 -23 107 -26 36 -2 70 -8 76 -13 6 -5 9 -33 6 -70 -4 -57 -3
-63 22 -83 18 -14 29 -36 35 -68 4 -26 14 -54 21 -63 17 -20 114 -55 154 -55
45 0 126 28 155 54 21 19 23 27 18 89 -2 37 -2 67 2 67 3 0 21 -23 40 -50 50
-73 52 -74 114 -54 99 31 117 12 158 -161 31 -130 47 -178 83 -236 42 -70 68
-79 109 -36 18 18 40 47 49 65 9 17 22 32 28 32 6 0 32 -22 57 -50 25 -27 50
-50 55 -50 5 0 26 12 49 27 51 33 137 57 155 42 7 -6 20 -33 29 -60 19 -56 39
-69 105 -69 43 0 50 -7 65 -65 l11 -40 77 -3 c74 -3 77 -2 112 30 24 22 49 65
76 128 24 55 60 118 86 150 40 48 76 113 96 173 7 20 42 23 54 5 4 -7 8 -90 8
-185 0 -188 -6 -162 67 -263 16 -23 23 -47 24 -90 2 -62 7 -73 86 -173 21 -27
38 -54 38 -60 0 -7 -20 -50 -44 -97 -44 -88 -68 -110 -118 -110 -51 0 -126
-21 -143 -40 -13 -15 -16 -30 -12 -60 6 -44 -14 -76 -40 -66 -8 3 -21 6 -28 6
-7 0 -55 28 -106 62 -132 87 -185 107 -285 108 -98 0 -173 -21 -237 -66 -26
-19 -51 -34 -57 -34 -5 0 -35 16 -67 35 -61 37 -91 42 -125 24 -16 -9 -33 -7
-73 6 l-51 18 -41 -27 c-39 -26 -43 -27 -70 -13 -15 8 -38 33 -50 55 -36 62
-107 120 -206 167 -145 67 -202 143 -215 282 -8 86 -22 104 -69 88 -21 -8 -37
-28 -62 -78 -45 -90 -47 -145 -8 -204 17 -24 27 -51 25 -65 -3 -21 -8 -23 -53
-22 -60 2 -154 36 -196 71 -16 14 -45 56 -64 93 -42 84 -74 101 -115 60 -23
-23 -27 -111 -9 -220 12 -74 24 -91 95 -132 57 -31 104 -71 104 -87 0 -23
-242 -140 -348 -167 -107 -28 -260 -112 -341 -189 -72 -68 -119 -141 -102
-158 9 -9 110 28 204 75 79 39 157 69 157 60 0 -4 -25 -32 -56 -62 -118 -115
-187 -226 -182 -288 4 -52 31 -53 114 -3 37 23 80 41 95 41 40 0 95 26 179 85
156 110 218 127 450 129 144 1 181 5 292 30 138 32 164 31 236 -14 30 -18 32
-23 32 -75 0 -51 3 -58 46 -107 26 -28 60 -81 77 -117 76 -171 97 -210 140
-268 71 -96 228 -206 337 -237 31 -8 105 -38 165 -67 61 -28 139 -57 175 -65
96 -20 287 -18 421 6 63 11 150 20 194 20 364 1 734 242 938 611 54 96 62 102
159 104 97 3 214 38 298 89 47 29 68 35 144 41 88 8 89 8 142 56 62 56 93 73
158 90 47 12 70 30 143 112 19 21 63 50 105 70 85 39 170 124 189 187 16 52
26 59 140 105 107 42 138 42 158 -1 9 -21 51 -212 51 -235 0 -3 -21 -19 -47
-36 -27 -16 -113 -90 -192 -164 -79 -74 -165 -150 -190 -169 -26 -20 -142 -85
-257 -145 -186 -96 -331 -176 -559 -308 -98 -57 -471 -306 -585 -391 -412
-308 -949 -832 -1174 -1146 -87 -121 -226 -368 -226 -400 0 -9 53 -29 155 -59
129 -37 231 -127 280 -248 51 -123 94 -166 264 -266 64 -38 123 -75 131 -83
10 -10 15 -34 14 -77 -1 -76 -26 -129 -157 -332 -215 -331 -309 -574 -308
-799 1 -216 57 -361 191 -497 138 -139 250 -167 434 -110 97 31 178 39 205 22
17 -11 29 -82 31 -176 1 -95 23 -212 49 -264 30 -58 87 -112 162 -154 75 -41
302 -126 479 -177 141 -42 141 -42 97 -129 -33 -66 -45 -70 -102 -31 -26 18
-68 39 -92 46 -25 7 -58 25 -75 39 -40 34 -62 32 -88 -11 -12 -19 -58 -60
-101 -91 -141 -98 -161 -144 -164 -365 -2 -140 -3 -149 -28 -186 -32 -49 -80
-72 -149 -72 -30 0 -95 -12 -153 -29 -55 -17 -111 -32 -125 -35 -25 -5 -70
-33 -162 -99 -39 -29 -60 -36 -135 -45 -169 -22 -521 -34 -652 -23 -158 13
-186 28 -261 136 -83 121 -130 165 -173 165 -50 0 -86 16 -127 55 -19 19 -52
41 -73 50 -21 9 -46 30 -57 48 -50 81 -121 328 -140 482 -6 50 -21 128 -34
175 -31 109 -33 120 -51 340 -8 102 -17 219 -21 261 -7 85 5 125 56 174 22 21
35 26 55 21 34 -9 46 -43 38 -116 -4 -43 -3 -60 6 -60 7 0 39 23 72 50 64 54
94 62 102 30 8 -32 -8 -75 -44 -120 -30 -37 -31 -42 -17 -57 26 -25 79 -9 144
44 44 36 58 43 65 32 5 -8 9 -19 9 -25 0 -22 34 -25 59 -6 41 29 60 33 70 14
26 -50 56 -363 39 -412 -7 -21 -31 -44 -77 -74 -108 -70 -106 -66 -105 -225 1
-185 11 -263 38 -303 27 -40 66 -56 98 -40 13 6 48 13 78 14 l55 3 57 105 c63
115 91 190 108 290 7 36 23 91 36 123 54 128 100 382 91 506 -13 187 -74 263
-442 546 -93 72 -195 156 -226 187 -94 95 -164 255 -125 287 24 20 42 -1 50
-59 9 -64 31 -66 77 -9 67 85 85 205 48 320 -32 103 -33 287 -1 369 53 133 10
298 -111 427 l-30 32 26 35 c15 19 27 44 27 56 0 29 -54 145 -96 206 -43 62
-73 85 -138 107 -62 21 -96 22 -96 2 0 -11 11 -15 36 -15 31 0 35 -3 32 -22
-3 -21 -9 -23 -79 -26 -77 -3 -135 10 -124 28 3 5 26 10 51 10 41 0 57 11 34
25 -7 4 -5 14 5 28 26 37 -3 134 -47 158 -25 14 -203 17 -300 5 -63 -7 -68 -6
-68 11 0 27 20 43 52 43 34 0 37 19 7 46 -18 16 -39 19 -151 21 -154 2 -178 6
-178 33 0 10 -18 40 -40 65 -22 25 -40 48 -40 51 0 3 9 23 20 44 25 50 103
258 126 336 17 61 38 94 60 94 29 0 84 98 84 152 0 16 10 52 21 79 l22 50 -23
24 c-13 14 -29 25 -36 25 -8 0 -46 -29 -86 -65 -108 -98 -119 -51 -15 63 106
115 130 187 71 214 -22 10 -29 8 -70 -33 -59 -58 -138 -176 -216 -323 -35 -65
-67 -117 -73 -115 -23 9 5 130 51 221 13 26 24 64 24 85 0 26 8 45 27 65 25
26 26 31 26 141 -1 131 -6 144 -104 282 -64 89 -120 145 -145 145 -19 0 -60
-44 -131 -145 -127 -178 -316 -390 -376 -421 -15 -8 -57 -18 -93 -21 -80 -7
-96 -19 -171 -126 -63 -91 -164 -197 -186 -197 -16 0 -77 113 -77 144 0 12 11
61 25 109 13 48 21 96 18 105 -7 21 -44 62 -55 62 -5 0 -43 -20 -86 -44 -42
-25 -96 -50 -120 -56 -49 -13 -105 -58 -120 -97 -6 -16 -16 -89 -21 -163 -7
-84 -20 -169 -36 -225 -27 -96 -32 -166 -14 -212 5 -15 36 -55 68 -88 32 -33
70 -85 84 -115 15 -31 64 -96 112 -149 89 -97 107 -127 119 -196 15 -87 39
-137 107 -223 113 -142 132 -201 82 -248 -22 -20 -25 -29 -17 -42 15 -23 50
-27 79 -8 13 8 38 40 57 70 18 31 37 56 42 56 4 0 5 -26 2 -57 -5 -40 -16 -71
-37 -102 -46 -66 -27 -87 48 -56 46 20 46 20 29 -13 -25 -49 13 -81 58 -47 51
39 31 -27 -30 -99 -19 -22 -34 -50 -34 -63 0 -20 5 -23 35 -23 19 0 35 -3 35
-7 0 -4 -17 -27 -39 -52 -21 -26 -41 -57 -45 -69 -10 -31 -113 -106 -181 -131
-182 -68 -366 -197 -616 -431 -62 -58 -110 -97 -106 -87 27 71 58 204 64 265
8 91 -6 94 -71 20 l-46 -53 0 100 c0 154 32 253 120 364 69 87 177 140 194 95
3 -9 6 -33 6 -54 0 -51 17 -60 47 -26 49 58 17 167 -57 193 -49 17 -132 16
-202 -3 -54 -14 -66 -14 -122 0 -40 10 -107 16 -186 16 l-124 0 29 -30 c26
-27 27 -30 10 -37 -12 -4 -20 -2 -23 6 -6 18 -44 51 -59 51 -7 0 -13 -7 -13
-15 0 -21 -83 -105 -105 -105 -24 0 -214 -183 -243 -234 -65 -113 -133 -176
-192 -176 -19 0 -36 -12 -59 -40 -24 -30 -41 -41 -71 -46 -21 -4 -50 -14 -65
-23 -34 -20 -135 -185 -135 -220 0 -14 -11 -36 -25 -49 -56 -54 -97 -272 -97
-527 -1 -249 17 -329 129 -573 36 -78 63 -145 60 -149 -15 -15 -40 12 -74 82
-37 75 -62 95 -64 53 -8 -112 76 -345 230 -644 97 -188 177 -309 255 -386 55
-55 58 -59 44 -80 -29 -44 16 -88 183 -179 124 -68 169 -109 121 -109 -40 0
-92 -80 -92 -141 l0 -31 -247 7 c-137 4 -357 10 -491 14 l-242 6 0 -652 0
-653 6400 0 6400 0 0 663 0 662 -612 -3 c-605 -3 -1711 12 -1756 24 l-23 7 29
31 c73 78 76 100 33 245 -52 176 -50 304 6 364 34 34 55 34 112 -2 126 -81
248 -59 266 48 8 49 -13 101 -53 130 -47 33 -80 112 -90 211 -13 122 -47 182
-146 256 -62 47 -149 79 -188 69 -14 -4 -37 -17 -53 -31 -44 -38 -69 -32 -113
29 -59 79 -94 144 -90 168 2 13 17 30 38 42 52 28 119 96 143 146 33 67 116
112 382 206 192 69 469 307 582 501 85 146 104 236 104 500 l-1 202 164 146
c169 151 217 208 242 292 21 71 18 159 -8 213 -45 95 -175 199 -365 295 -191
95 -236 173 -235 402 0 150 28 317 127 779 40 187 83 388 94 447 35 179 38
182 129 119 149 -102 250 -207 307 -321 66 -131 120 -348 130 -525 5 -93 -4
-296 -16 -344 -6 -23 215 -181 258 -185 14 -1 18 6 17 29 -1 47 -33 378 -44
455 -35 247 -118 471 -242 655 -100 147 -286 347 -400 428 l-64 46 -12 333
c-7 183 -19 396 -27 473 l-14 140 60 114 c68 129 124 211 145 211 25 0 73 -54
124 -139 78 -131 80 -143 80 -465 0 -155 5 -308 10 -341 22 -133 118 -258 246
-320 83 -40 196 -46 287 -16 62 21 117 54 117 70 0 4 -29 24 -65 44 -44 25
-77 54 -101 87 -37 52 -42 54 -114 65 -62 10 -95 29 -162 93 -40 38 -61 67
-69 95 -7 25 -9 151 -7 351 l3 311 -37 66 c-48 85 -133 203 -219 305 l-68 80
36 215 c44 259 43 274 -28 342 -119 115 -387 250 -604 306 -115 29 -268 41
-529 41 l-229 0 111 114 c74 75 112 122 113 138 4 68 -5 148 -20 188 -10 25
-70 123 -134 219 -149 221 -167 258 -179 368 -14 135 -35 153 -123 112 -101
-47 -184 -195 -216 -382 -7 -42 -17 -71 -26 -74 -8 -3 -51 2 -96 11 -118 23
-155 22 -168 -8 -14 -30 1 -151 42 -335 16 -74 28 -136 26 -138 -5 -5 -173 71
-377 170 -96 47 -227 104 -290 126 -63 23 -120 47 -127 53 -7 6 -13 30 -13 54
0 24 -7 62 -16 85 -13 32 -15 59 -10 124 3 49 2 95 -4 110 -6 15 -40 61 -76
103 -54 63 -68 88 -85 147 -37 131 -126 275 -170 275 -8 0 -60 -40 -116 -89
-130 -114 -192 -161 -328 -251 -130 -86 -209 -124 -290 -139 -126 -23 -598 -5
-780 30 -120 23 -209 24 -303 4 -161 -33 -283 -103 -456 -261 -223 -202 -314
-274 -350 -274 -27 0 -18 35 15 59 16 12 35 34 42 49 6 15 33 50 59 79 55 59
61 94 27 149 l-20 34 33 14 c18 8 51 20 73 28 31 11 44 23 65 63 22 43 25 65
29 168 l3 119 -93 -4 c-72 -4 -105 -10 -141 -28 -26 -13 -50 -21 -54 -18 -3 4
-1 38 5 77 19 118 14 182 -19 272 -51 142 -119 224 -237 291 -32 18 -76 52
-98 76 -100 108 -119 124 -208 166 -112 55 -247 95 -342 102 -61 4 -77 2 -120
-20z m3579 -971 c6 -18 -2 -45 -15 -45 -12 0 -27 33 -22 48 6 17 30 15 37 -3z
m146 -321 c0 -19 -4 -34 -10 -34 -13 0 -24 45 -16 66 10 25 26 6 26 -32z
m1600 -231 c45 -56 97 -132 116 -169 31 -60 35 -74 32 -132 -2 -37 -8 -67 -14
-69 -6 -2 -35 22 -65 54 -30 31 -88 93 -129 136 l-75 79 -3 136 -2 137 30 -35
c16 -19 66 -81 110 -137z m-349 -132 c23 -18 24 -26 27 -153 3 -132 -10 -220
-33 -220 -36 0 -102 316 -79 376 8 22 57 20 85 -3z m304 -287 c19 -33 35 -70
35 -80 0 -21 -69 -94 -107 -113 -46 -24 -88 24 -77 87 10 62 35 155 51 192
l14 35 25 -30 c14 -16 40 -57 59 -91z m796 -389 c138 -35 252 -79 344 -131 94
-55 198 -130 240 -174 29 -30 30 -35 30 -125 0 -76 -3 -98 -17 -112 -20 -19
-5 -30 -173 127 -144 136 -440 360 -537 406 -85 40 -27 45 113 9z m-41 -218
c128 -86 557 -496 580 -555 11 -27 10 -42 -5 -95 -21 -76 -74 -187 -93 -195
-22 -8 -37 16 -87 143 -107 270 -192 411 -364 605 -61 69 -111 128 -111 132 0
11 30 -2 80 -35z m-3010 -996 c0 -5 -7 -12 -16 -15 -22 -9 -24 -8 -24 9 0 8 9
15 20 15 11 0 20 -4 20 -9z m-280 -201 c0 -11 -6 -20 -14 -20 -18 0 -29 16
-21 30 11 18 35 11 35 -10z m-255 -150 c0 -22 -29 -18 -33 3 -3 14 1 18 15 15
10 -2 18 -10 18 -18z m-342 -94 c8 -21 -17 -40 -31 -23 -9 10 -8 17 0 25 16
16 25 15 31 -2z m-3518 -2156 c11 -17 -5 -32 -21 -19 -8 6 -14 15 -14 20 0 12
27 11 35 -1z m124 -104 c8 -10 9 -16 1 -21 -13 -8 -30 3 -30 21 0 18 14 18 29
0z m529 -207 l-3 -54 -37 -3 c-74 -6 -103 35 -47 66 18 9 41 27 52 40 28 30
39 15 35 -49z m292 -184 c19 -23 8 -26 -20 -5 -19 15 -21 20 -9 20 9 0 22 -7
29 -15z m38 -155 c17 -11 32 -24 32 -29 0 -12 -45 6 -81 31 -22 16 -22 17 -4
17 11 1 35 -8 53 -19z m0 -56 c12 -14 22 -29 22 -35 0 -13 -31 -10 -60 6 -14
8 -41 15 -60 15 -66 1 -80 32 -20 43 46 9 94 -3 118 -29z m-3009 -400 c-58
-60 -218 -188 -226 -181 -9 9 50 79 109 129 62 53 149 110 157 103 2 -3 -15
-26 -40 -51z m3151 -76 c0 -23 -27 -35 -43 -18 -10 10 -8 12 7 6 16 -6 18 -3
12 25 -5 27 -4 30 9 19 8 -7 15 -21 15 -32z m-3485 -78 c-38 -62 -52 -77 -63
-65 -8 8 42 105 71 136 38 41 33 -3 -8 -71z m3416 -2 c16 -32 26 -58 21 -58
-11 0 -82 123 -82 141 1 20 25 -14 61 -83z m3 -234 c18 -17 30 -57 24 -76 -4
-12 -68 66 -68 84 0 14 27 9 44 -8z m-3854 -216 c-11 -46 -32 -121 -46 -168
-22 -72 -27 -81 -37 -65 -17 31 -14 154 6 210 17 50 88 137 95 116 2 -6 -6
-48 -18 -93z m-190 48 c0 -16 -14 -36 -26 -36 -14 0 -19 22 -7 33 7 8 33 10
33 3z m4180 -36 c0 -11 -4 -20 -10 -20 -5 0 -10 9 -10 20 0 11 5 20 10 20 6 0
10 -9 10 -20z m-4218 -402 c15 -29 15 -189 0 -244 -15 -50 -39 -75 -53 -53
-18 29 -7 217 17 302 7 23 21 21 36 -5z m693 -269 c15 -24 -180 -173 -220
-167 -16 2 -21 12 -23 45 -3 36 2 46 31 75 19 19 49 39 68 45 45 14 136 16
144 2z m-25 -293 c0 -8 -18 -56 -39 -106 -70 -160 -111 -365 -111 -556 0 -121
24 -388 40 -444 18 -62 8 -66 -39 -18 -43 44 -106 169 -135 271 -87 298 -44
564 126 778 52 66 158 116 158 75z m1882 -186 c46 -13 55 -26 34 -49 -20 -22
-21 -60 0 -68 9 -3 67 21 137 56 67 35 123 58 125 52 2 -5 -8 -27 -22 -47 -24
-36 -26 -54 -4 -54 6 0 45 16 88 35 43 19 90 35 106 35 53 0 59 -11 63 -116
l3 -97 24 29 c35 44 31 4 -7 -62 l-31 -54 46 -20 c42 -17 46 -22 46 -53 0 -42
-21 -62 -56 -53 -26 7 -27 7 -22 -38 11 -93 67 -133 170 -121 34 4 58 3 58 -2
0 -13 -29 -37 -62 -51 -54 -23 -22 -78 62 -107 25 -8 51 -18 59 -20 11 -4 10
-10 -3 -30 -23 -35 -21 -42 23 -64 31 -16 40 -28 51 -66 7 -25 32 -73 56 -108
24 -34 44 -68 44 -75 0 -7 21 -53 47 -103 46 -88 47 -91 35 -134 -28 -105 -6
-147 84 -161 25 -3 53 -14 63 -23 21 -18 53 -118 41 -126 -17 -10 -889 -6
-928 4 -43 12 -64 27 -162 112 -36 31 -80 64 -97 73 -18 9 -48 30 -67 46 -41
37 -95 60 -137 60 -17 0 -90 -14 -161 -31 -72 -16 -133 -27 -137 -24 -3 4 29
39 73 78 43 40 125 118 181 173 122 120 127 132 146 342 15 164 5 252 -36 314
-26 39 -114 102 -211 151 -87 44 -114 72 -114 121 0 95 122 224 253 265 72 23
89 24 139 11z m6634 -431 c80 -49 179 -191 172 -246 l-3 -28 -105 0 c-114 -1
-168 -12 -221 -48 -50 -33 -46 -65 10 -96 l44 -24 -7 -56 c-3 -31 -9 -78 -12
-104 -7 -48 -6 -49 43 -96 28 -27 76 -64 108 -82 70 -41 99 -86 90 -142 -7
-47 -35 -105 -64 -131 -28 -25 -125 -33 -197 -16 -50 12 -55 12 -105 -15 -29
-15 -106 -63 -171 -106 l-117 -79 -348 1 c-596 1 -983 13 -994 29 -29 47 9
141 101 250 98 118 104 134 105 275 0 97 -4 127 -19 157 -21 44 -71 78 -114
78 -17 0 -37 3 -46 6 -18 7 -21 39 -5 49 6 4 103 1 216 -6 159 -10 236 -10
343 -1 164 13 194 23 699 234 415 173 503 207 560 217 2 1 19 -8 37 -20z
m-2113 -1100 c16 -26 -2 -88 -36 -125 -28 -30 -40 -35 -93 -40 -78 -8 -154 2
-154 21 0 33 206 168 249 163 13 -2 28 -10 34 -19z"/>
</g>
</svg>
