<?xml version="1.0" standalone="no"?>
<!DOCTYPE svg PUBLIC "-//W3C//DTD SVG 20010904//EN"
 "http://www.w3.org/TR/2001/REC-SVG-20010904/DTD/svg10.dtd">
<svg version="1.0" xmlns="http://www.w3.org/2000/svg"
 width="1280.000000pt" height="662.000000pt" viewBox="0 0 1280.000000 662.000000"
 preserveAspectRatio="xMidYMid meet">
<metadata>
Created by potrace 1.15, written by Peter Selinger 2001-2017
</metadata>
<g transform="translate(0.000000,662.000000) scale(0.100000,-0.100000)"
fill="#000000" stroke="none">
<path d="M10529 6605 c-31 -7 -81 -25 -111 -38 l-56 -25 -49 24 c-36 19 -61
24 -98 22 -49 -3 -50 -4 -48 -33 10 -150 6 -190 -24 -255 -37 -79 -66 -173
-93 -304 -25 -124 -25 -136 0 -136 11 0 20 -4 20 -10 0 -5 -9 -14 -20 -20 -26
-14 -25 -27 2 -36 22 -7 22 -7 -7 -31 -27 -21 -28 -25 -13 -34 16 -9 17 -12 3
-33 -13 -20 -14 -35 -5 -92 28 -186 76 -331 146 -442 51 -80 74 -104 90 -91 9
7 14 0 19 -33 12 -79 14 -82 35 -63 18 16 21 13 75 -69 52 -82 57 -94 82 -221
l27 -135 -21 -22 c-54 -60 -50 -100 14 -117 54 -15 109 -3 144 31 16 16 29 35
29 41 2 137 8 186 24 203 15 14 21 15 35 6 37 -27 76 -52 83 -52 3 0 8 7 10
16 3 14 6 14 27 -3 20 -17 25 -33 34 -115 l11 -95 -32 -48 c-37 -57 -39 -68
-12 -95 15 -15 33 -20 78 -20 84 0 120 31 132 115 4 31 9 39 23 37 13 -2 17 4
17 28 0 24 4 30 18 28 13 -2 18 5 20 30 3 27 6 31 17 22 11 -9 16 -7 24 9 6
11 11 26 11 34 0 10 7 13 20 10 19 -5 26 9 21 40 -2 11 21 9 87 -8 119 -31
232 -36 190 -8 -8 4 35 10 99 13 61 3 115 8 119 12 4 4 2 14 -5 22 -10 11 -4
17 33 29 43 15 44 15 50 -6 15 -56 6 -101 -25 -133 -43 -45 -35 -79 21 -94 64
-17 107 -4 141 43 26 36 29 48 29 114 0 40 4 73 9 73 5 0 18 -12 28 -26 l19
-25 26 20 26 21 16 -47 c9 -26 16 -67 16 -93 0 -38 -5 -51 -30 -75 -62 -59
-25 -108 77 -103 57 3 59 4 89 50 31 46 32 50 27 131 l-6 83 42 55 c40 53 81
151 81 196 0 24 15 31 23 11 11 -30 60 146 78 280 17 125 6 345 -21 452 -38
146 -99 260 -181 340 -37 36 -38 38 -27 76 12 46 5 205 -12 251 -7 20 -17 30
-25 27 -9 -4 -15 5 -17 28 -2 18 -8 32 -15 31 -6 -1 -16 10 -22 25 -19 52 -28
59 -45 37 -12 -15 -15 -16 -16 -5 0 9 -8 26 -17 39 l-16 24 -9 -23 c-8 -22 -9
-22 -54 20 -85 79 -244 129 -359 115 -174 -22 -335 -115 -420 -243 -15 -23
-37 -69 -50 -104 l-22 -62 -13 40 c-7 21 -17 44 -22 50 -4 6 -7 27 -6 45 2 28
0 33 -14 31 -14 -2 -18 4 -18 27 0 23 -5 30 -22 33 -15 2 -24 11 -26 25 -5 31
-136 117 -220 144 -86 27 -218 33 -293 14z"/>
<path d="M597 6502 c-25 -28 -38 -70 -44 -151 -7 -96 5 -140 62 -227 25 -38
48 -79 52 -92 8 -34 -21 -59 -95 -82 -59 -18 -67 -19 -88 -5 -42 27 -111 15
-141 -24 -17 -22 -16 -76 2 -110 38 -75 96 -149 128 -164 46 -22 169 -40 239
-35 44 3 58 1 58 -9 0 -7 -27 -67 -60 -133 -103 -206 -125 -298 -99 -420 10
-48 21 -61 34 -40 12 19 22 10 18 -17 -5 -39 10 -61 31 -44 14 11 16 11 16 -5
0 -65 95 -191 186 -250 46 -30 53 -39 64 -84 7 -28 11 -53 9 -54 -2 -2 -23
-13 -46 -25 -104 -52 -90 -124 27 -138 65 -8 114 3 148 32 25 21 31 35 36 87
12 110 11 108 71 108 l52 0 7 -46 c3 -26 6 -70 6 -98 0 -47 -3 -53 -30 -69
-16 -10 -33 -30 -36 -44 -14 -52 30 -83 119 -83 112 0 146 37 170 190 30 183
24 174 115 193 126 27 265 104 425 232 l57 47 0 -31 c0 -21 -7 -35 -25 -47
-78 -51 3 -122 108 -93 53 14 63 30 71 110 8 85 25 159 37 159 5 0 21 -19 36
-42 26 -38 28 -50 28 -133 -1 -75 -4 -97 -20 -120 -39 -54 -55 -80 -55 -88 0
-4 11 -19 25 -32 20 -21 34 -25 79 -25 47 0 60 4 89 30 33 28 34 33 40 118 3
49 13 130 22 180 13 71 20 89 33 88 13 -1 18 9 20 37 2 23 7 35 14 31 15 -9
28 15 28 53 0 26 3 30 19 26 24 -6 39 39 48 144 16 193 -78 370 -237 447 -64
30 -68 31 -205 30 -120 -1 -151 -4 -220 -26 -256 -81 -326 -100 -385 -105 -58
-5 -67 -3 -85 16 -20 23 -17 28 20 45 6 3 2 11 -8 19 -18 15 -18 15 1 21 17 6
19 13 15 51 -5 42 -3 46 49 102 113 120 176 203 187 248 25 98 8 182 -44 223
-53 42 -128 26 -351 -73 -196 -88 -202 -89 -335 -69 -103 16 -115 20 -168 59
-32 23 -100 83 -153 134 -102 97 -136 112 -171 73z"/>
<path d="M7380 6369 c-60 -29 -68 -30 -108 -20 -56 14 -71 14 -106 -4 -15 -8
-44 -15 -62 -15 -25 0 -44 -10 -73 -35 -21 -19 -45 -35 -54 -35 -20 0 -74 -46
-82 -69 -3 -9 -21 -25 -41 -34 -24 -12 -41 -31 -55 -60 -11 -23 -29 -54 -41
-69 -11 -15 -22 -43 -23 -62 -1 -20 -8 -43 -15 -51 -19 -22 -20 -142 -3 -197
14 -43 21 -51 76 -79 51 -26 64 -29 85 -19 16 7 28 7 36 0 7 -5 22 -11 34 -13
12 -2 25 -6 28 -10 4 -4 18 -7 30 -7 21 0 23 -5 22 -37 0 -21 -5 -44 -11 -50
-5 -7 -6 -28 -3 -47 4 -21 2 -37 -5 -41 -6 -4 -8 -17 -5 -30 4 -14 0 -28 -10
-36 -12 -10 -14 -23 -10 -50 3 -21 2 -41 -4 -44 -5 -3 -10 -19 -10 -35 0 -16
5 -32 10 -35 6 -3 7 -23 4 -44 -4 -27 -2 -40 9 -50 9 -7 14 -18 11 -26 -3 -7
-1 -16 5 -20 6 -3 11 -17 11 -30 0 -13 4 -26 10 -30 5 -3 6 -13 3 -21 -3 -9 4
-29 17 -46 17 -23 22 -44 22 -92 1 -33 5 -67 11 -74 10 -12 13 -43 16 -141 1
-14 -6 -32 -14 -41 -18 -20 -19 -42 -4 -57 8 -8 8 -17 0 -31 -11 -21 -6 -73
11 -105 12 -24 50 -38 123 -45 76 -7 135 -7 206 1 53 6 57 5 78 -23 17 -24 29
-30 61 -30 23 0 45 7 55 17 16 16 18 16 27 0 10 -20 58 -23 76 -5 9 9 15 9 24
0 18 -18 73 -14 91 6 11 12 26 17 46 14 21 -3 33 2 45 19 9 13 16 31 16 41 0
9 9 22 20 28 20 11 42 72 34 94 -3 7 2 19 11 26 17 14 21 75 5 85 -12 7 -2 63
17 90 15 23 18 101 3 110 -6 4 -7 23 -4 46 4 25 2 44 -6 54 -7 9 -10 18 -7 21
3 3 1 19 -3 35 -8 28 -7 29 23 29 40 0 62 -37 45 -75 -7 -16 -7 -29 1 -44 9
-16 9 -26 0 -42 -6 -12 -8 -37 -4 -58 8 -49 15 -118 15 -165 0 -47 23 -86 51
-86 11 0 30 -6 42 -14 30 -19 127 -29 159 -17 24 9 26 7 32 -20 8 -41 58 -70
121 -69 28 1 64 -2 82 -6 18 -3 45 -2 60 4 18 6 33 6 44 -1 21 -13 64 -2 89
25 18 20 21 36 24 118 1 14 8 36 17 50 13 19 17 51 18 135 0 61 -4 116 -9 124
-5 9 -3 23 7 38 10 16 13 33 8 55 -3 18 -6 56 -5 85 0 28 -4 54 -10 58 -5 3
-10 21 -10 39 0 19 -6 39 -14 45 -7 6 -11 22 -8 36 2 14 -3 36 -12 50 -9 13
-16 36 -16 51 0 15 -8 36 -17 47 -10 10 -18 33 -19 50 -2 33 -34 67 -63 67
-10 0 -21 12 -26 32 -6 17 -22 39 -37 47 -15 9 -37 28 -48 43 -12 16 -35 30
-56 34 -36 7 -64 36 -64 67 0 11 11 32 25 49 26 30 32 53 16 62 -5 3 -6 25 -4
49 11 93 -61 181 -158 194 -32 5 -44 2 -51 -11 -5 -9 -17 -16 -26 -16 -23 0
-42 -19 -42 -41 0 -10 -9 -21 -20 -24 -11 -4 -28 -17 -36 -31 -14 -21 -15 -27
-2 -46 22 -34 5 -78 -30 -79 -53 -2 -86 3 -108 17 -13 9 -32 12 -48 8 -31 -7
-33 -1 -7 25 30 30 26 126 -5 158 -13 13 -24 32 -24 41 0 26 -38 82 -55 82 -8
0 -15 4 -15 10 0 5 -17 21 -39 34 -27 18 -40 34 -45 57 -9 47 -32 67 -94 85
-30 9 -73 29 -97 46 -62 44 -106 46 -185 7z"/>
<path d="M4585 6323 c-62 -22 -80 -25 -163 -19 -108 6 -189 -6 -252 -39 -25
-13 -66 -33 -92 -43 -55 -24 -90 -68 -153 -192 -43 -86 -69 -110 -115 -110
-11 0 -68 33 -127 74 -59 40 -127 83 -150 95 -70 35 -123 25 -123 -24 0 -28
15 -40 132 -110 l98 -57 -25 -30 c-36 -43 -33 -90 10 -164 68 -113 110 -138
259 -150 l78 -7 -4 -76 c-4 -62 -15 -99 -56 -199 -55 -133 -68 -194 -54 -257
7 -32 13 -40 28 -38 17 2 20 -3 16 -29 -4 -27 -2 -29 17 -23 19 6 21 3 21 -38
0 -32 8 -56 31 -90 31 -47 173 -187 190 -187 20 0 7 -40 -31 -99 -30 -46 -50
-66 -78 -77 -78 -31 -89 -53 -49 -99 19 -23 34 -29 80 -33 49 -4 63 -1 96 21
22 15 55 52 76 86 20 34 38 61 40 61 2 0 13 -17 25 -37 21 -36 21 -38 4 -75
-16 -36 -16 -39 1 -58 22 -24 90 -27 122 -5 22 15 53 97 53 138 0 13 -9 36
-20 50 -11 14 -20 27 -20 30 0 2 42 7 93 10 50 3 115 12 142 21 45 14 161 78
223 122 21 16 22 15 22 -8 0 -18 -9 -29 -35 -41 -28 -13 -35 -22 -35 -45 0
-41 17 -52 85 -52 77 0 99 15 119 83 21 71 95 194 153 255 37 39 62 55 110 70
l61 20 57 -96 c65 -111 72 -137 55 -216 -10 -47 -16 -59 -38 -69 -38 -16 -72
-48 -72 -67 0 -10 9 -29 21 -44 15 -20 29 -26 57 -26 49 0 113 18 135 38 43
38 90 137 108 228 11 51 33 125 51 165 18 43 31 90 31 112 -1 29 2 37 15 35
14 -3 17 5 15 45 -2 26 2 47 7 47 15 0 12 145 -5 225 -22 102 -69 189 -145
266 -75 76 -143 112 -250 135 -108 23 -294 13 -475 -24 -192 -41 -228 -45
-273 -32 -42 11 -52 24 -52 69 0 47 25 67 165 126 193 81 256 125 319 220 52
79 25 115 -89 115 -38 1 -88 5 -110 10 -22 5 -79 17 -126 27 l-87 18 5 32 c6
36 -10 63 -36 62 -9 0 -47 -12 -86 -26z"/>
<path d="M7881 3311 c-18 -5 -49 -16 -70 -24 -20 -9 -53 -18 -74 -22 -57 -9
-100 -55 -157 -165 -46 -91 -53 -100 -79 -100 -41 0 -195 80 -268 140 -68 55
-82 59 -101 30 -9 -15 -23 -20 -57 -20 -25 0 -45 -4 -45 -9 0 -6 11 -31 25
-57 22 -42 25 -59 25 -160 0 -132 1 -134 98 -134 l60 0 4 -57 c4 -48 10 -61
37 -85 22 -19 42 -28 66 -28 28 0 42 -8 71 -40 20 -22 58 -54 85 -72 l48 -31
-67 -72 c-37 -39 -78 -93 -90 -119 -22 -42 -23 -57 -20 -161 3 -109 2 -115
-17 -115 -32 0 -83 -36 -101 -72 -14 -27 -16 -50 -11 -133 5 -78 2 -124 -12
-197 -10 -53 -16 -108 -14 -122 6 -32 56 -76 86 -76 12 0 31 -7 41 -15 11 -8
30 -15 43 -15 23 0 23 -2 23 -103 l0 -102 -35 -19 c-45 -25 -112 -97 -131
-141 -20 -48 -18 -155 4 -213 21 -56 69 -129 123 -187 l37 -40 -143 0 c-137 0
-145 -1 -169 -24 -34 -32 -59 -88 -52 -115 7 -30 47 -47 121 -53 49 -4 86 2
204 36 l144 40 28 -19 c76 -55 279 -129 358 -131 14 0 35 -4 45 -8 17 -6 11
-13 -38 -48 -34 -25 -78 -46 -109 -53 -84 -19 -105 -30 -121 -65 -23 -48 -21
-112 3 -125 30 -15 120 -11 176 8 28 9 109 58 180 108 72 50 140 96 153 103
19 10 22 19 22 76 0 36 4 65 9 65 5 0 31 15 58 33 l49 33 115 -13 c157 -19
482 -12 564 11 199 55 378 166 429 265 38 72 -26 84 -103 18 -27 -23 -87 -61
-133 -84 -163 -80 -301 -109 -490 -101 -116 5 -262 30 -272 47 -3 4 7 43 21
87 49 153 35 323 -72 823 -51 240 -54 262 -49 351 6 84 0 152 -22 283 l-7 37
48 0 c139 0 173 86 120 296 -14 53 -22 100 -19 103 3 3 33 12 67 21 44 11 65
21 71 36 5 11 22 26 38 32 l28 10 0 99 c-1 104 -10 165 -37 226 -16 38 -27 44
-53 27 -10 -6 -20 -4 -32 6 -15 15 -23 12 -85 -25 l-68 -41 -8 33 c-30 115
-99 214 -182 263 -100 58 -232 85 -314 65z"/>
<path d="M5890 3272 c-18 -15 -24 -37 -36 -127 -49 -385 -102 -555 -227 -740
-78 -115 -121 -152 -206 -179 -158 -50 -576 -122 -641 -111 -19 3 -96 19 -170
36 -74 16 -144 32 -156 34 -17 4 -22 17 -33 87 -29 194 -83 341 -144 393 -81
70 -253 136 -358 138 -33 1 -55 -6 -78 -22 -30 -22 -40 -23 -120 -19 -55 3
-99 12 -121 23 -19 10 -80 62 -135 115 -134 131 -182 152 -291 130 -145 -30
-152 -132 -19 -249 140 -122 309 -177 473 -153 34 5 62 7 62 5 0 -16 -35 -65
-61 -87 -51 -44 -184 -106 -225 -106 -26 0 -43 -8 -66 -30 -34 -34 -33 -63 2
-112 13 -18 20 -43 20 -74 0 -146 155 -255 340 -239 l77 7 19 -44 c17 -39 18
-66 16 -269 -4 -303 3 -348 82 -562 75 -201 86 -264 88 -517 1 -147 0 -158
-25 -213 -14 -31 -32 -59 -39 -61 -7 -3 -25 -7 -40 -10 -34 -8 -58 -43 -65
-95 -5 -35 -2 -44 26 -72 l32 -32 79 7 c101 8 107 11 120 51 6 18 29 62 50 98
40 65 40 67 40 169 0 155 38 469 60 491 4 5 41 0 81 -11 41 -11 86 -23 100
-26 61 -13 95 -186 86 -426 -8 -194 -19 -243 -61 -268 -32 -19 -66 -74 -66
-107 0 -24 27 -72 45 -78 8 -4 37 -9 63 -13 55 -7 86 5 138 53 28 26 31 37 37
108 4 44 24 150 44 235 37 151 38 160 38 350 l0 195 85 58 c73 50 330 187 351
187 4 0 45 -46 92 -102 46 -57 114 -133 151 -170 76 -75 102 -131 112 -245 l6
-68 -50 -24 c-52 -25 -72 -52 -72 -100 0 -39 17 -50 92 -62 87 -15 108 -5 152
73 35 64 35 65 25 129 -11 63 -6 281 7 346 l6 32 32 -23 c17 -13 75 -49 129
-81 54 -32 100 -62 103 -67 3 -5 11 -75 16 -155 11 -138 10 -146 -8 -156 -46
-26 -64 -55 -64 -104 0 -26 4 -54 8 -61 12 -18 68 -32 130 -32 l53 0 29 61
c28 60 29 64 23 183 -3 66 0 179 5 250 l11 129 -45 50 c-76 85 -92 121 -110
247 -21 155 -49 288 -77 368 -13 37 -76 157 -140 266 -64 110 -117 207 -117
215 0 19 47 131 128 306 33 72 72 165 87 208 50 150 104 558 84 632 -13 46
-40 61 -69 37z"/>
<path d="M901 2801 c-18 -70 -31 -84 -80 -87 -23 -1 -73 -12 -112 -24 -39 -12
-77 -19 -84 -16 -7 2 -16 17 -19 33 -8 31 -52 93 -67 93 -5 0 -9 -9 -9 -20 0
-41 -21 -66 -70 -83 -121 -43 -199 -145 -209 -272 l-6 -70 -72 -5 c-58 -4 -76
-10 -97 -29 -15 -14 -26 -36 -26 -50 0 -13 -10 -45 -22 -69 -48 -99 -33 -201
39 -271 44 -41 48 -43 94 -39 l49 5 32 -70 c23 -51 43 -78 73 -99 65 -47 69
-81 25 -187 -63 -153 -60 -228 15 -386 55 -117 119 -202 186 -248 30 -20 68
-51 84 -68 32 -34 141 -108 217 -149 46 -24 47 -26 58 -89 6 -36 14 -111 17
-167 6 -111 9 -107 -62 -135 -46 -19 -65 -48 -65 -101 0 -44 19 -60 93 -79 46
-11 50 -10 125 27 l76 39 13 65 c7 35 19 85 28 109 9 26 15 80 15 132 l0 87
78 0 c42 0 124 10 181 22 57 11 106 19 108 16 9 -9 42 -222 48 -316 l7 -95
-42 -23 c-66 -37 -93 -127 -47 -156 28 -19 107 -30 150 -22 19 3 52 22 75 41
36 32 41 41 47 93 4 31 13 81 21 110 12 43 13 77 4 195 -11 156 -5 270 16 303
17 29 69 60 138 84 l56 19 55 -76 c68 -93 135 -225 141 -279 5 -38 4 -40 -37
-59 -57 -27 -65 -42 -53 -102 8 -41 14 -51 44 -65 54 -28 115 -23 185 15 l60
32 7 100 c3 55 11 120 17 144 9 41 8 47 -15 68 -26 24 -90 150 -81 159 3 3 40
-13 83 -34 44 -22 98 -46 122 -53 49 -14 89 -57 141 -150 28 -50 71 -159 71
-180 0 -5 -15 -15 -32 -22 -45 -19 -66 -46 -73 -92 -11 -74 34 -113 130 -114
39 -1 156 46 169 67 3 6 10 77 15 159 l9 148 -34 55 c-18 30 -47 97 -65 149
-29 89 -31 100 -24 191 5 76 4 104 -9 133 -23 55 -107 173 -202 284 -73 86
-84 103 -84 136 0 42 38 164 71 229 11 22 18 42 15 45 -16 16 -150 -106 -181
-166 -19 -38 -25 -38 -56 -5 -40 43 -188 157 -289 224 -197 129 -450 237 -654
278 l-86 17 -5 90 c-7 162 -60 279 -159 357 -44 35 -55 51 -77 114 -26 74 -34
87 -78 137 -21 23 -89 67 -104 67 -2 0 -9 -22 -16 -49z m-416 -971 c-3 -5 -26
-21 -50 -36 -47 -27 -135 -38 -142 -18 -2 6 10 8 32 6 39 -5 116 20 135 44 14
16 35 20 25 4z"/>
<path d="M12095 2274 c-16 -3 -91 -25 -165 -49 -166 -54 -405 -90 -455 -69
-54 23 -103 17 -136 -15 -17 -17 -29 -40 -29 -55 0 -15 -9 -59 -20 -99 -30
-105 -37 -205 -17 -244 15 -28 67 -62 99 -64 7 0 31 -24 53 -52 24 -31 62 -63
92 -80 l52 -28 -25 -36 c-36 -53 -35 -93 2 -167 21 -40 24 -53 15 -75 l-11
-26 -128 0 c-134 0 -212 -14 -345 -60 -145 -51 -258 -131 -498 -354 -233 -216
-236 -218 -404 -227 -152 -8 -163 -11 -185 -47 -11 -18 -20 -50 -20 -73 0 -32
6 -46 33 -71 17 -17 46 -38 64 -47 38 -19 147 -21 222 -5 42 9 54 8 73 -5 30
-21 83 -20 149 2 42 15 99 20 260 25 114 4 227 4 251 1 l45 -6 -23 -57 c-14
-33 -24 -77 -24 -108 0 -49 2 -54 32 -69 45 -23 138 -15 210 18 52 24 60 32
82 81 18 42 34 61 67 80 l43 26 22 -60 c22 -60 52 -102 87 -120 28 -16 197 35
317 93 58 29 109 54 115 57 5 2 -3 -10 -18 -28 -32 -39 -36 -100 -11 -173 23
-70 44 -83 124 -82 89 1 150 24 174 67 11 17 39 63 64 101 45 68 46 69 168
127 236 111 249 127 248 319 0 132 -14 237 -45 357 l-19 73 24 48 c60 118 101
337 93 497 -6 118 -28 186 -85 254 -21 25 -81 102 -134 171 -119 154 -180 214
-238 235 -45 16 -189 27 -245 19z m-423 -789 c-5 -35 -85 -195 -94 -189 -16
10 -48 83 -48 109 0 30 14 61 41 91 16 17 27 19 62 14 35 -4 41 -9 39 -25z
m-752 -868 c0 -2 -10 -12 -22 -23 l-23 -19 19 23 c18 21 26 27 26 19z"/>
</g>
</svg>
